<?xml version="1.0" encoding="UTF-8" standalone="no"?>
<!-- Created with Inkscape (http://www.inkscape.org/) -->

<svg
   version="1.1"
   id="svg1"
   width="83.883659"
   height="75.240952"
   viewBox="0 0 83.883659 75.240952"
   sodipodi:docname="cat.svg"
   inkscape:version="1.4 (86a8ad7, 2024-10-11)"
   xmlns:inkscape="http://www.inkscape.org/namespaces/inkscape"
   xmlns:sodipodi="http://sodipodi.sourceforge.net/DTD/sodipodi-0.dtd"
   xmlns="http://www.w3.org/2000/svg"
   xmlns:svg="http://www.w3.org/2000/svg">
  <defs
     id="defs1">
    <inkscape:path-effect
       effect="spiro"
       id="path-effect44"
       is_visible="true"
       lpeversion="1" />
    <inkscape:path-effect
       effect="spiro"
       id="path-effect43"
       is_visible="true"
       lpeversion="1" />
    <inkscape:path-effect
       effect="spiro"
       id="path-effect36"
       is_visible="true"
       lpeversion="1" />
    <inkscape:path-effect
       effect="spiro"
       id="path-effect35"
       is_visible="true"
       lpeversion="1" />
    <inkscape:path-effect
       effect="spiro"
       id="path-effect28"
       is_visible="true"
       lpeversion="1" />
    <inkscape:path-effect
       effect="spiro"
       id="path-effect9"
       is_visible="true"
       lpeversion="1" />
    <inkscape:path-effect
       effect="spiro"
       id="path-effect3"
       is_visible="true"
       lpeversion="1" />
    <inkscape:path-effect
       effect="spiro"
       id="path-effect8"
       is_visible="true"
       lpeversion="1" />
    <inkscape:path-effect
       effect="spiro"
       id="path-effect7"
       is_visible="true"
       lpeversion="1" />
    <inkscape:path-effect
       effect="powerstroke"
       message=""
       id="path-effect18"
       is_visible="true"
       lpeversion="1.3"
       scale_width="1"
       interpolator_type="CentripetalCatmullRom"
       interpolator_beta="0.2"
       start_linecap_type="zerowidth"
       end_linecap_type="round"
       offset_points="0.2,0.80000001 | 0.5,0.80000001 | 0.8,0.80000001 | 1.2,0.80000001 | 1.5,0.80000001 | 1.8,0.80000001"
       linejoin_type="round"
       miter_limit="4"
       not_jump="false"
       sort_points="true" />
    <inkscape:path-effect
       effect="join_type"
       id="path-effect17"
       is_visible="true"
       lpeversion="1"
       linecap_type="round"
       line_width="1.6"
       linejoin_type="round"
       miter_limit="100"
       attempt_force_join="true" />
    <inkscape:path-effect
       effect="spiro"
       id="path-effect15"
       is_visible="true"
       lpeversion="1" />
    <inkscape:path-effect
       effect="spiro"
       id="path-effect43-4"
       is_visible="true"
       lpeversion="1" />
  </defs>
  <sodipodi:namedview
     id="namedview1"
     pagecolor="#ffffff"
     bordercolor="#000000"
     borderopacity="0.25"
     inkscape:showpageshadow="2"
     inkscape:pageopacity="0.0"
     inkscape:pagecheckerboard="0"
     inkscape:deskcolor="#d1d1d1"
     inkscape:zoom="2.7303118"
     inkscape:cx="106.58123"
     inkscape:cy="102.003"
     inkscape:window-width="1920"
     inkscape:window-height="1009"
     inkscape:window-x="-8"
     inkscape:window-y="-8"
     inkscape:window-maximized="1"
     inkscape:current-layer="g1" />
  <g
     inkscape:groupmode="layer"
     inkscape:label="Image"
     id="g1"
     transform="translate(-34.274103,-37.71875)">
    <path
       id="path33"
       d="m 114.27734,44.935547 c 0,0 0.0111,0.991655 -0.80273,2.257812 -0.81379,1.266158 -2.44854,2.775458 -5.88086,3.623047 h -0.002 -0.002 c 0,0 -8.250854,2.086119 -12.765621,8.060547 l 0.796875,0.601563 c 4.223599,-5.589124 12.205736,-7.689523 12.212886,-7.691407 l 0.004,-0.002 c 3.62853,-0.89718 5.52526,-2.570667 6.47656,-4.050781 0.95176,-1.480813 0.96289,-2.798828 0.96289,-2.798828 z m 2.33204,-1.367188 c -0.43972,-0.01666 -0.84935,0.0932 -1.16993,0.25 -0.64115,0.313608 -1.04297,0.791016 -1.04297,0.791016 a 0.5,0.5 0 0 0 0.0547,0.705078 0.5,0.5 0 0 0 0.70508,-0.05469 c 0,0 0.29504,-0.333807 0.72266,-0.542969 0.42762,-0.209162 0.87614,-0.316059 1.4707,0.148437 a 0.5,0.5 0 0 0 0.70312,-0.08789 0.5,0.5 0 0 0 -0.0879,-0.701172 c -0.44621,-0.348607 -0.91575,-0.491154 -1.35546,-0.507813 z m -2.85364,-2.467108 c -0.73085,-0.575051 -1.53414,-0.941296 -2.29809,-1.061028 -0.76395,-0.11973 -1.5543,0.0163 -2.03689,0.571813 -0.48259,0.555515 -0.47312,1.318372 -0.20595,2.009957 0.26717,0.691584 0.79487,1.375072 1.52572,1.950123 0.73085,0.575058 1.53542,0.939829 2.29938,1.05956 0.76395,0.11973 1.55148,-0.01603 2.03407,-0.571543 0.48259,-0.555517 0.47594,-1.318642 0.20877,-2.010227 -0.26718,-0.691583 -0.79615,-1.373597 -1.52701,-1.948655 z m -0.6904,0.794731 c 0.60179,0.473498 1.02093,1.037717 1.20633,1.517614 0.18539,0.47989 0.13442,0.812012 -0.025,0.995563 -0.15946,0.18355 -0.49135,0.292143 -1.02146,0.209066 -0.53011,-0.08309 -1.19247,-0.367342 -1.79425,-0.84084 -0.60178,-0.473492 -1.01965,-1.039185 -1.20504,-1.519081 -0.18539,-0.479891 -0.13725,-0.81175 0.0222,-0.995301 0.15945,-0.18355 0.49417,-0.292407 1.02428,-0.209328 0.53011,0.08308 1.19119,0.368815 1.79296,0.842307 z M 96.933594,58.052734 c -0.909826,0 -1.699109,0.272429 -2.394532,0.507813 -0.825306,0.279346 -1.222656,0.875355 -1.222656,1.630859 0,0.755504 0.567173,1.300165 1.222656,1.63086 0.655484,0.330694 1.484706,0.507812 2.394532,0.507812 0.909825,0 1.739047,-0.177118 2.394531,-0.507812 0.655484,-0.330695 1.220705,-0.875356 1.220705,-1.63086 0,-0.755504 -0.565221,-1.300164 -1.220705,-1.630859 -0.655484,-0.330695 -1.484706,-0.507813 -2.394531,-0.507813 z m 0,1.269532 c 0.73666,0 1.398758,0.159385 1.822265,0.373046 0.423508,0.213662 0.523438,0.420939 0.523438,0.496094 0,0.07516 -0.09993,0.282432 -0.523438,0.496094 -0.423507,0.213662 -1.085605,0.373047 -1.822265,0.373047 -0.73666,0 -1.398758,-0.159385 -1.822266,-0.373047 -0.423507,-0.213662 -0.523437,-0.420938 -0.523437,-0.496094 0,-0.07516 0.09993,-0.282432 0.523437,-0.496094 0.423508,-0.213661 1.085606,-0.373046 1.822266,-0.373046 z m -9.712891,1.27539 c -1.889137,1.339579 -3.103516,2.90625 -3.103516,2.90625 l 0.789063,0.613281 c 0,0 1.138096,-1.459029 2.892578,-2.703125 C 89.55331,60.169967 91.845509,59.188877 94.214844,60 l 0.324218,-0.947266 c -1.046709,-0.358333 -3.842021,-0.920133 -7.318359,1.544922 z M 73.931641,54.486328 c -0.235973,0.09755 -0.417745,0.279791 -0.515625,0.515625 -0.09788,0.235835 -0.09755,0.492544 0,0.728516 0.09755,0.235972 0.277837,0.415791 0.513671,0.513672 0.235835,0.09788 0.492544,0.0995 0.728516,0.002 0.235972,-0.09755 0.417745,-0.279791 0.515625,-0.515625 0.09788,-0.235835 0.09755,-0.492544 0,-0.728516 -0.09755,-0.235972 -0.27979,-0.415791 -0.515625,-0.513672 -0.235834,-0.09788 -0.49059,-0.0995 -0.726562,-0.002 z m 0.34375,0.833984 c 0.01765,-0.0073 0.01947,-0.0073 0.03711,0 0.01764,0.0073 0.02005,0.0097 0.02734,0.02734 0.0073,0.01765 0.0073,0.01947 0,0.03711 -0.0073,0.01764 -0.0097,0.02005 -0.02734,0.02734 -0.01765,0.0073 -0.01947,0.0073 -0.03711,0 -0.01764,-0.0073 -0.01809,-0.0097 -0.02539,-0.02734 -0.0073,-0.01765 -0.0073,-0.01947 0,-0.03711 0.0073,-0.01764 0.0077,-0.02005 0.02539,-0.02734 z m 0.191406,0.462891 c 0.10916,-0.04512 0.199071,-0.13491 0.24435,-0.244006 0.04528,-0.109096 0.04537,-0.236159 2.43e-4,-0.345319 -0.04512,-0.10916 -0.13491,-0.199071 -0.244006,-0.24435 -0.109096,-0.04528 -0.236159,-0.04537 -0.345319,-2.43e-4 -0.10916,0.04512 -0.199071,0.13491 -0.24435,0.244006 -0.04528,0.109096 -0.04537,0.236159 -2.43e-4,0.345319 0.04512,0.10916 0.13491,0.199071 0.244006,0.24435 0.109096,0.04528 0.236159,0.04537 0.345319,2.43e-4 z m 0,0 0.0332,1.246094 c 0.0208,0.769583 -0.161985,1.153122 -0.384766,1.373047 -0.222781,0.219924 -0.547861,0.319446 -0.935547,0.333984 -0.77537,0.02908 -1.656249,-0.322266 -1.65625,-0.322266 a 0.5,0.5 0 0 0 -0.65625,0.267579 0.5,0.5 0 0 0 0.267579,0.654296 c 0,0 1.000618,0.439064 2.083984,0.398438 0.541683,-0.02031 1.140837,-0.170131 1.597656,-0.621094 0.293943,-0.290174 0.334586,-0.857962 0.439453,-1.357422 0.300902,0.255068 0.491198,0.505716 1.160157,0.732422 0.509768,0.172758 1.125582,0.239082 1.716796,-0.02148 0.591215,-0.260566 1.095482,-0.827489 1.447266,-1.726563 a 0.5,0.5 0 0 0 -0.2832,-0.648441 0.5,0.5 0 0 0 -0.648438,0.283203 c -0.288467,0.737251 -0.619694,1.045415 -0.919921,1.177734 -0.300228,0.13232 -0.631541,0.109841 -0.990235,-0.01172 -0.717384,-0.243118 -1.386719,-0.878907 -1.386719,-0.878907 z m 12.105469,16.587891 c -0.617448,1.100667 -2.658694,2.242631 -4.552735,2.992187 -1.89404,0.749557 -3.607422,1.169922 -3.607422,1.169922 l 0.238282,0.972656 c 0,0 1.769539,-0.434544 3.736328,-1.21289 1.966788,-0.778346 4.164568,-1.837943 5.058593,-3.431641 z m -2.464844,-3.992188 c -0.144171,0.198235 -0.685022,0.566403 -1.392578,0.878906 -0.707556,0.312504 -1.579716,0.608347 -2.421875,0.859375 -1.684319,0.502057 -3.244141,0.826172 -3.244141,0.826172 l 0.203125,0.980469 c 0,0 1.595199,-0.333064 3.328125,-0.849609 0.866463,-0.258273 1.768003,-0.561793 2.539063,-0.902344 0.771059,-0.340551 1.415316,-0.680434 1.796875,-1.205078 z M 85,63.705078 84.023437,63.916016 c 0.05909,0.271816 0.02001,0.441161 -0.08398,0.615234 -0.103991,0.174073 -0.300097,0.35502 -0.59375,0.517578 -0.587305,0.325116 -1.527374,0.554339 -2.498047,0.681641 C 78.906312,65.985071 76.849609,65.875 76.849609,65.875 l -0.05469,0.998047 c 0,0 2.116247,0.118784 4.183594,-0.152344 1.033673,-0.135564 2.058826,-0.358039 2.851562,-0.796875 0.396368,-0.219418 0.742107,-0.499525 0.96875,-0.878906 C 85.025471,64.665541 85.1052,64.188998 85,63.705078 Z m -8.277344,-2.207031 c 0,0 -1.560824,9.691919 2.144531,17.574219 l 0.904297,-0.425782 c -3.523432,-7.4953 -2.060547,-16.992187 -2.060547,-16.992187 z m -4.011719,2.197265 c 0,0 -0.886097,8.586838 1.337891,15.191407 l 0.947266,-0.31836 C 72.882809,72.292546 73.705078,63.794922 73.705078,63.794922 Z M 88.125,73.294922 c -3.507485,4.495958 -7.914811,5.371576 -11.519531,5.15625 -3.60472,-0.215326 -6.332031,-1.552735 -6.332032,-1.552735 l -0.439453,0.898438 c 0,0 2.891675,1.424085 6.712891,1.652344 3.821216,0.228258 8.645885,-0.76903 12.367187,-5.539063 z M 77.488281,61.037109 c -0.98462,0.09661 -1.989778,0.388439 -2.972656,0.947266 -1.965756,1.117654 -3.811553,3.27568 -5.318359,6.958984 l 0.923828,0.378907 c 1.450424,-3.545483 3.170211,-5.491699 4.888672,-6.46875 1.71846,-0.977052 3.46941,-1.016486 5.097656,-0.626954 3.256492,0.779065 5.894531,3.322266 5.894531,3.322266 l 0.699219,-0.716797 c 0,0 -2.750473,-2.714284 -6.361328,-3.578125 -0.902714,-0.21596 -1.866942,-0.31341 -2.851563,-0.216797 z m 9.197266,3.382813 c -0.405606,0.01004 -0.786925,0.118912 -1.111328,0.384765 -1.439119,1.179381 -1.96987,2.521132 -1.828125,3.775391 0.141744,1.254259 0.88327,2.367047 1.761718,3.308594 1.756898,1.883094 4.158204,3.140625 4.158204,3.140625 l 0.466796,-0.882813 c 0,0 -2.298627,-1.23087 -3.894531,-2.941406 -0.797952,-0.855268 -1.395786,-1.816118 -1.5,-2.738281 -0.104214,-0.922163 0.212911,-1.857891 1.470703,-2.888672 0.208698,-0.171031 0.743652,-0.206958 1.441407,0.0039 0.697754,0.210865 1.493747,0.624034 2.125,1.048828 3.474554,2.338165 5.863281,5.003907 5.863281,5.003907 l 0.746094,-0.666016 c 0,0 -2.459974,-2.751573 -6.050782,-5.167969 -0.702296,-0.472602 -1.558019,-0.922983 -2.394531,-1.175781 -0.418256,-0.126399 -0.8483,-0.215119 -1.253906,-0.205078 z m -16.738281,4.285156 c -0.778357,-0.141363 -1.555277,-0.101662 -2.298829,0.07227 -1.487103,0.347855 -2.85458,1.199527 -4.03125,2.164062 -2.353339,1.929071 -3.96875,4.353516 -3.96875,4.353516 l 0.832032,0.55664 c 0,0 1.561398,-2.326676 3.769531,-4.136718 1.104066,-0.905021 2.364119,-1.669449 3.626953,-1.964844 1.262835,-0.295395 2.513233,-0.156694 3.787109,0.773437 0.927182,0.67699 1.131364,1.313994 1.042969,2.03125 -0.08839,0.717257 -0.559494,1.538183 -1.1875,2.28711 -1.256012,1.497853 -3.052734,2.679687 -3.052734,2.679687 l 0.544922,0.835938 c 0,0 1.884371,-1.21652 3.273437,-2.873047 0.694534,-0.828263 1.286826,-1.774202 1.414063,-2.806641 0.127237,-1.032438 -0.302433,-2.128406 -1.445313,-2.96289 -0.748909,-0.546823 -1.528284,-0.868402 -2.30664,-1.009766 z M 68.03125,88.654297 c -0.549445,-0.113667 -1.140926,-0.09158 -1.751953,0.115234 -2.276248,0.770423 -3.113597,2.270004 -3.253906,3.523438 -0.14031,1.253433 0.328125,2.279297 0.328125,2.279297 l 0.01758,0.03711 0.02148,0.0332 c 0,0 1.644736,2.508639 3.197266,4.263672 l 0.75,-0.664063 c -1.45336,-1.642928 -3.038787,-4.043013 -3.076172,-4.099609 -0.0084,-0.01962 -0.348964,-0.801861 -0.244141,-1.738281 0.106126,-0.948061 0.58477,-2.012165 2.580078,-2.6875 0.913725,-0.309261 1.625882,-0.09899 2.324219,0.433594 0.698337,0.532583 1.327903,1.416242 1.830078,2.365234 1.00435,1.897984 1.507813,4.005859 1.507813,4.005859 l 0.972656,-0.230468 c 0,0 -0.515515,-2.197197 -1.597656,-4.242188 -0.541071,-1.022495 -1.222408,-2.02036 -2.107422,-2.695312 -0.442507,-0.337477 -0.948602,-0.585552 -1.498047,-0.699219 z m 35.49414,-9.175781 c -1.27914,0.111229 -2.24099,0.786122 -2.88086,1.675781 -0.63987,0.889659 -0.995319,1.985243 -1.205077,3.046875 -0.419516,2.123264 -0.246094,4.162109 -0.246094,4.162109 l 0.996091,-0.08203 c 0,0 -0.15504,-1.935575 0.23047,-3.886719 0.19276,-0.975571 0.52294,-1.944076 1.03516,-2.65625 0.51222,-0.712174 1.16817,-1.177752 2.15625,-1.263672 1.05058,-0.09136 1.69511,0.110426 2.11328,0.410157 0.41817,0.29973 0.64598,0.725012 0.76953,1.205078 0.24709,0.960131 0.006,2.041015 0.006,2.041015 v 0.0039 l -1.18359,5.193359 0.97461,0.222656 1.18164,-5.191406 c 10e-4,-0.0058 0.31739,-1.248267 -0.01,-2.519531 -0.16396,-0.637111 -0.50859,-1.303358 -1.15625,-1.767578 -0.64766,-0.464221 -1.56462,-0.699544 -2.78125,-0.59375 z M 55.476562,44.091797 c -0.225705,0.0053 0.23523,0.575831 0.07956,0.739345 -0.32366,0.341175 -0.984044,0.404646 -0.642062,0.727452 l 2.029297,1.921875 c 0.34093,0.322349 0.878568,0.307489 1.201172,-0.0332 0.322867,-0.3404 0.30888,-0.878021 -0.03125,-1.201172 L 56.083981,44.324222 C 55.920324,44.169288 55.701838,44.085687 55.476559,44.0918 Z m 31.769532,-3.826172 c -0.211028,0.07824 -0.382412,0.23698 -0.476563,0.441406 l -1.550781,3.361328 c -0.19624,0.425564 -0.01102,0.929674 0.414062,1.126953 0.426601,0.197299 0.932346,0.01093 1.128907,-0.416015 L 88.3125,41.419922 c 0.195985,-0.426092 -0.286,-0.09149 -0.711833,-0.288039 -0.20458,-0.09506 -0.142738,-0.943807 -0.354573,-0.866254 z m -1.753907,-2.546875 -0.36914,0.685547 c 0,0 -0.537172,1.020456 -2.244141,2.296875 -1.706969,1.276419 -4.558276,2.759075 -9.132812,3.505859 -4.257074,0.69496 -10.545039,2.821947 -16.623047,-2.753906 l -0.759766,-0.695313 -0.07813,1.025391 c -0.02366,0.312317 -0.287697,1.043926 -0.753906,1.992188 -0.466209,0.948261 -1.119958,2.143913 -1.876953,3.550781 -1.51399,2.813735 -3.44327,6.477322 -5.15625,10.798828 -3.347769,8.445749 -5.785276,19.443333 -2.742188,31.513672 -0.640585,-0.245272 -2.487058,-0.994331 -5.021484,-1.435547 -1.470311,-0.255965 -2.957132,-0.364493 -4.173828,-0.03711 -0.608348,0.163692 -1.158946,0.446509 -1.5625,0.904296 -0.401736,0.455725 -0.627374,1.076229 -0.642578,1.804688 -0.02717,0.124986 -0.342334,1.622421 0.484375,2.882812 0.430789,0.656778 1.21582,1.186524 2.363281,1.279297 1.125968,0.09104 2.612488,-0.208066 4.619141,-1.048828 0.0088,-0.0016 0.226569,-0.04056 0.6875,0.02148 0.470087,0.06328 1.140884,0.235816 1.916015,0.693359 1.550263,0.915085 3.546199,2.977674 5.09961,7.683591 0.0076,0.0259 1.355665,4.63572 5.609375,7.77344 4.253544,3.13759 11.423349,4.6949 22.683593,-1.11719 2.824164,0.0771 10.268498,-0.92406 17.521485,-4.48633 7.335501,-3.6028 14.371801,-9.873325 15.494131,-20.23437 0.93597,-8.64045 -0.31744,-18.407635 -8.50195,-30.726563 -1.60999,-2.423281 -4.088497,-4.051627 -6.949213,-6.173828 -2.860715,-2.122201 -6.130747,-4.733349 -9.421875,-9.082031 z m 0.113282,1.710937 c 3.218168,4.106965 6.42553,6.750322 9.18164,8.794922 2.883493,2.139098 5.251041,3.728422 6.710941,5.925782 8.07654,12.15642 9.25903,21.594969 8.34179,30.0625 -1.07897,9.960646 -7.78867,15.934239 -14.941403,19.447269 -7.148572,3.51098 -14.772295,4.49179 -17.195312,4.40234 -0.0068,-4.6e-4 -3.314786,-0.22185 -7.658203,-1.20508 -4.33339,-0.98096 -9.834438,-2.88456 -14.900391,-6.914061 -3.032764,-2.412283 -5.908462,-5.593497 -8.296875,-9.802734 -3.282424,-12.106457 -0.792973,-23.136953 2.580078,-31.646484 1.689497,-4.26226 3.597062,-7.886369 5.107422,-10.69336 0.755181,-1.403495 1.410173,-2.602779 1.892578,-3.583984 0.327307,-0.665736 0.435248,-1.112758 0.580078,-1.59961 6.270028,5.280287 12.927789,3.226327 16.898438,2.578125 4.717457,-0.770116 7.734139,-2.318864 9.572266,-3.693359 1.202373,-0.899098 1.779962,-1.594623 2.126953,-2.072266 z M 36.820312,89.130859 c 0.952798,-0.256375 2.343075,-0.184976 3.742188,0.05859 2.737939,0.476645 5.387854,1.52768 5.505859,1.574219 2.414449,4.211955 5.314382,7.436471 8.375,9.886722 3.16001,6.30182 7.099282,8.20655 10.246094,8.39844 2.964086,0.18074 5.037555,-1.0263 5.310547,-1.18945 3.257574,0.71974 4.737629,0.81472 5.820312,0.91601 -10.049525,4.71187 -16.337887,3.34912 -20.091796,0.58008 -3.968552,-2.92737 -5.248047,-7.26563 -5.248047,-7.26563 l -0.0039,-0.008 -0.002,-0.008 c -1.60644,-4.866573 -3.745553,-7.172606 -5.541015,-8.232427 -0.897731,-0.529911 -1.703948,-0.74519 -2.291016,-0.824219 -0.587068,-0.07903 -0.994141,-0.01563 -0.994141,-0.01563 l -0.06055,0.0078 -0.05469,0.02539 c -1.976983,0.840786 -3.349947,1.07863 -4.25,1.00586 -0.900053,-0.07277 -1.329568,-0.408419 -1.607422,-0.832032 -0.555707,-0.847225 -0.333984,-2.21875 -0.333984,-2.21875 l 0.0078,-0.04492 0.002,-0.04492 c 0.0099,-0.545131 0.157106,-0.898373 0.396485,-1.169922 0.239379,-0.271549 0.595867,-0.471422 1.072265,-0.59961 z m 19.6875,12.957031 c 4.182912,2.85699 8.398074,4.40711 12.046875,5.33399 -0.87291,0.35894 -2.102493,0.73074 -3.804687,0.62695 -2.462578,-0.15016 -5.479623,-1.57392 -8.242188,-5.96094 z"
       inkscape:label="outline" />
    <path
       id="path36"
       style="fill:#f7b0ff;stroke:#f7b0ff;stroke-width:0"
       d="m 90.167841,53.204075 c -0.501743,-7.46e-4 -1.000703,0.205061 -1.356017,0.55932 -0.355313,0.354258 -0.562604,0.852604 -0.56335,1.354347 -7.46e-4,0.501743 0.205061,1.000703 0.55932,1.356017 0.354258,0.355313 0.852604,0.562604 1.354347,0.56335 0.501743,7.46e-4 1.000703,-0.205061 1.356017,-0.55932 0.355313,-0.354258 0.562604,-0.852604 0.56335,-1.354347 7.46e-4,-0.501743 -0.205061,-1.000703 -0.55932,-1.356017 -0.354258,-0.355313 -0.852604,-0.562604 -1.354347,-0.56335 z m -29.806829,5.721256 c -0.56379,-0.01634 -1.130837,0.199509 -1.541052,0.586613 -0.410215,0.387105 -0.658548,0.940697 -0.67489,1.504487 -0.01634,0.56379 0.199509,1.130837 0.586613,1.541052 0.387105,0.410215 0.940697,0.658548 1.504487,0.67489 0.56379,0.01634 1.130837,-0.199509 1.541052,-0.586613 0.410215,-0.387105 0.658548,-0.940697 0.67489,-1.504487 0.01634,-0.56379 -0.199509,-1.130837 -0.586613,-1.541052 -0.387105,-0.410215 -0.940697,-0.658548 -1.504487,-0.67489 z"
       inkscape:label="dimples" />
    <path
       id="eyes_and_belly_button"
       style="font-variation-settings:normal;opacity:1;fill:#000000;fill-opacity:1;stroke:none;stroke-width:0;stroke-linecap:butt;stroke-linejoin:miter;stroke-miterlimit:4;stroke-dasharray:none;stroke-dashoffset:0;stroke-opacity:1;stop-color:#000000;stop-opacity:1"
       inkscape:path-effect="#path-effect44"
       inkscape:original-d="m 90.9808,96.25177 c 7.62e-4,-0.462952 -0.0023,0.945496 -0.0023,1.388855 0,0.443359 0.0015,-0.925903 0.0023,-1.388855 z M 65.319948,55.543298 c -0.0035,-0.958996 0.01046,1.91605 0.01046,2.876987 0,0.960937 -0.007,-1.917991 -0.01046,-2.876987 z m 19.111,-3.537473 c -0.0035,-0.958996 0.01046,1.91605 0.01046,2.876987 0,0.960937 -0.007,-1.917991 -0.01046,-2.876987 z"
       d="m 90.9808,96.25177 c -0.181801,-3.01e-4 -0.362606,0.07424 -0.491371,0.20258 -0.128766,0.12834 -0.203905,0.308897 -0.204207,0.490697 -3.01e-4,0.181801 0.07424,0.362606 0.20258,0.491372 0.12834,0.128765 0.308897,0.203905 0.490698,0.204206 0.181801,3.01e-4 0.362606,-0.07424 0.491371,-0.20258 0.128766,-0.12834 0.203905,-0.308897 0.204207,-0.490698 3.01e-4,-0.1818 -0.07424,-0.362605 -0.20258,-0.491371 C 91.343158,96.327211 91.162601,96.252071 90.9808,96.25177 Z M 65.319948,55.543298 c -0.376597,0.0014 -0.750311,0.157761 -1.015637,0.425023 -0.265326,0.267262 -0.418996,0.642104 -0.417627,1.0187 0.0014,0.376597 0.157761,0.750311 0.425024,1.015637 0.267262,0.265326 0.642103,0.418996 1.0187,0.417627 0.376597,-0.0014 0.750311,-0.157761 1.015637,-0.425023 0.265326,-0.267262 0.418996,-0.642104 0.417626,-1.018701 -0.0014,-0.376596 -0.15776,-0.75031 -0.425023,-1.015636 -0.267262,-0.265326 -0.642103,-0.418996 -1.0187,-0.417627 z m 19.111,-3.537473 c -0.376597,0.0014 -0.750311,0.157761 -1.015637,0.425023 -0.265326,0.267262 -0.418996,0.642104 -0.417627,1.0187 0.0014,0.376597 0.157761,0.750311 0.425024,1.015637 0.267262,0.265326 0.642103,0.418996 1.0187,0.417627 0.376597,-0.0014 0.750311,-0.157761 1.015637,-0.425023 0.265326,-0.267262 0.418996,-0.642104 0.417627,-1.018701 -0.0014,-0.376596 -0.157761,-0.75031 -0.425024,-1.015636 -0.267262,-0.265326 -0.642103,-0.418996 -1.0187,-0.417627 z" />
    <path
       id="path28"
       style="fill:#5ed154;fill-opacity:1;stroke:#000000;stroke-width:0.00110485"
       d="m 87.112003,73.190493 c -0.172196,0.01515 -0.251688,0.192922 -0.363803,0.299261 -0.623268,0.681089 -1.41374,1.189167 -2.214832,1.619272 -1.014901,0.536715 -2.088706,0.971086 -3.171976,1.360472 -0.698956,0.250938 -1.419133,0.476649 -2.140472,0.685235 -0.128755,0.03212 -0.217402,0.176306 -0.162981,0.303066 0.118787,0.328367 0.258655,0.649477 0.40081,0.967993 0.05267,0.110618 0.188158,0.125892 0.294483,0.09532 1.745454,-0.255036 3.442298,-0.86288 4.93407,-1.80756 0.955211,-0.598765 1.821942,-1.331875 2.596944,-2.149234 0.195801,-0.210211 0.397521,-0.416838 0.572736,-0.644708 0.07376,-0.103323 0.03373,-0.257512 -0.07855,-0.315142 -0.187515,-0.129592 -0.358342,-0.2856 -0.559204,-0.394597 -0.0336,-0.01483 -0.07055,-0.02163 -0.107227,-0.01938 z M 83.99571,69.547862 c -0.162636,0.03778 -0.297165,0.14653 -0.44889,0.212426 -0.858739,0.422021 -1.772628,0.738678 -2.686976,1.026198 -1.012819,0.310091 -2.039536,0.577701 -3.067654,0.820635 -0.121844,0.01964 -0.205908,0.143454 -0.180833,0.263999 0.07609,0.581215 0.191564,1.156694 0.308431,1.730889 0.200759,0.945771 0.444289,1.883753 0.755768,2.799359 0.02853,0.105357 0.11743,0.203212 0.234709,0.191892 0.230905,-0.04572 0.455283,-0.125479 0.682361,-0.188741 1.221129,-0.371379 2.430511,-0.79282 3.588526,-1.332294 0.90042,-0.425241 1.783414,-0.905013 2.567157,-1.523705 0.253103,-0.207617 0.502016,-0.426096 0.706133,-0.683182 0.08501,-0.09929 0.06796,-0.25337 -0.02915,-0.338167 -0.255152,-0.252839 -0.522868,-0.493427 -0.765086,-0.759289 -0.521791,-0.562197 -0.994944,-1.173324 -1.326649,-1.869423 -0.06629,-0.125101 -0.103902,-0.304725 -0.260224,-0.346583 -0.0259,-0.0037 -0.05144,-0.0082 -0.07762,-0.004 z m 0.981011,-5.020096 c -0.131563,-0.0012 -0.216686,0.118676 -0.251007,0.233079 -0.21953,0.499897 -0.677409,0.850653 -1.158338,1.081153 -0.847216,0.406486 -1.793975,0.577262 -2.703863,0.695174 -1.11526,0.13897 -2.228756,0.179974 -3.34951,0.162601 -0.109863,-0.01296 -0.248974,0.01293 -0.284922,0.133159 -0.03074,0.12899 -0.0016,0.264942 -0.0065,0.396865 0.02785,1.167546 0.09713,2.34016 0.231848,3.497072 -0.0015,0.101816 0.03995,0.21784 0.148303,0.252531 0.122186,0.03953 0.246181,-0.02829 0.366981,-0.04585 1.459084,-0.350251 2.911683,-0.745527 4.312551,-1.287565 0.554542,-0.219378 1.105403,-0.466601 1.593845,-0.811701 0.119929,-0.09477 0.05497,-0.255846 0.05353,-0.38446 -0.05576,-0.664307 0.106475,-1.332393 0.421031,-1.919124 0.227537,-0.428248 0.537498,-0.8133 0.876369,-1.151127 0.09627,-0.106858 0.227313,-0.190238 0.288368,-0.323896 0.04385,-0.127198 -0.05599,-0.234048 -0.149306,-0.304828 -0.118464,-0.08599 -0.232044,-0.220724 -0.389354,-0.223086 z m -6.757371,-2.72571 c -0.201306,0.0055 -0.405325,0.0024 -0.60385,0.0386 -0.120889,0.03452 -0.157759,0.166789 -0.161535,0.278505 -0.143228,1.250908 -0.212956,2.509234 -0.236817,3.767787 7.01e-4,0.125997 0.122909,0.217621 0.244212,0.201029 0.908011,0.0048 1.817483,-0.0031 2.722101,-0.08991 0.905655,-0.08645 1.816117,-0.219299 2.676774,-0.524644 0.432792,-0.162165 0.878145,-0.367862 1.171102,-0.73926 0.159947,-0.205221 0.257292,-0.479423 0.197169,-0.73872 -0.05875,-0.159932 -0.233659,-0.223076 -0.361896,-0.315787 -1.388311,-0.87555 -2.923722,-1.571016 -4.56012,-1.801432 -0.360022,-0.05037 -0.723516,-0.07796 -1.08714,-0.07618 z m -5.650704,3.046291 c -0.168053,-0.0029 -0.253481,0.164669 -0.346821,0.276515 -0.821163,1.078742 -1.475466,2.27668 -2.019164,3.516178 -0.06137,0.108381 -0.03769,0.262682 0.07889,0.323148 0.14698,0.06453 0.307699,0.09372 0.456486,0.155284 0.57417,0.210922 1.124305,0.520559 1.606463,0.907577 0.100112,0.08729 0.269546,0.123014 0.368193,0.01469 0.09979,-0.10367 0.04203,-0.254287 0.04876,-0.380778 -0.02664,-1.008433 -0.03563,-2.020879 -0.01551,-3.029238 0.01255,-0.528395 0.033,-1.062093 0.06013,-1.591878 -0.01082,-0.117584 -0.12213,-0.200938 -0.237436,-0.191494 z m 0.412465,9.546028 c -0.165041,4.34e-4 -0.238271,0.168083 -0.320732,0.282709 -0.492099,0.703153 -1.083528,1.33416 -1.713344,1.914671 -0.116144,0.115721 -0.255688,0.208682 -0.359078,0.336405 -0.09128,0.121517 -0.02746,0.303295 0.107971,0.360524 0.396181,0.174202 0.806957,0.314261 1.217469,0.450845 0.600074,0.193229 1.207789,0.365715 1.824129,0.498509 0.148152,0.02325 0.275367,-0.138573 0.222524,-0.277811 -0.230323,-0.819739 -0.429142,-1.653377 -0.583681,-2.493522 -0.0595,-0.299445 -0.106261,-0.600473 -0.160196,-0.902006 -0.0255,-0.105151 -0.126815,-0.179059 -0.235062,-0.170324 z m 3.5231,-12.323391 c -0.570119,0.08912 -1.088245,0.377396 -1.595518,0.638903 -0.481426,0.27517 -0.944674,0.602466 -1.342619,0.984243 -0.09596,0.258786 -0.0665,0.558674 -0.101519,0.834439 -0.216546,3.780857 -0.11184,7.604593 0.630186,11.327093 0.173985,0.820286 0.36301,1.641214 0.632188,2.435781 0.158064,0.222421 0.480218,0.179162 0.718934,0.235818 1.010035,0.131523 2.032478,0.134174 3.04901,0.113242 0.220468,-2.2e-4 0.271599,-0.266078 0.181091,-0.426514 -0.563069,-1.39879 -1.015341,-2.829068 -1.331819,-4.300097 -0.554905,-2.543096 -0.784386,-5.14439 -0.749969,-7.743481 -0.01139,-1.288547 0.08171,-2.565128 0.199281,-3.850343 0.01155,-0.156486 -0.143458,-0.265139 -0.289246,-0.249084 z"
       inkscape:label="yarn_color" />
    <path
       id="path30"
       style="fill:#ffffff;fill-opacity:1;stroke:#000000;stroke-width:0.0064746"
       d="m 85.607833,39.522737 c -0.600089,0.230779 -0.961026,0.836585 -1.46313,1.218724 -2.461356,2.138689 -5.598892,3.322971 -8.749615,3.989603 -2.125245,0.398892 -4.280562,0.855711 -6.422671,1.106176 -1.658515,0.08396 -3.336497,0.148006 -4.971656,-0.09446 -2.376842,-0.410883 -4.618546,-1.452735 -6.521513,-2.925582 -0.300998,-0.251964 -0.7261,-0.0414 -0.798449,0.320189 -0.118291,0.475545 -0.423719,0.904757 -0.481421,1.389762 0.46696,0.681647 1.179954,1.168016 1.720153,1.787339 0.49294,0.328202 0.280804,1.194247 -0.321033,1.225119 -0.533175,-0.005 -0.857126,-0.546888 -1.250407,-0.836007 -0.292889,-0.194143 -0.568866,-0.650607 -0.96474,-0.547179 -0.457667,0.388783 -0.641176,1.014198 -0.960227,1.510662 -2.267908,4.25315 -4.433726,8.580108 -6.029526,13.137063 -1.802404,5.070786 -2.980949,10.393157 -3.199139,15.779214 -0.09812,3.032699 0.01352,6.078702 0.521721,9.07441 0.275004,1.535744 0.532631,3.090755 1.050266,4.566505 0.613559,1.302051 1.493189,2.459299 2.319455,3.631539 3.238618,4.389731 7.569428,7.964516 12.51264,10.277376 4.80768,2.29138 10.076719,3.45643 15.34861,4.02797 3.285198,0.17277 6.551307,-0.48268 9.716851,-1.30059 3.253185,-0.8651 6.422216,-2.05627 9.397009,-3.63739 3.915792,-2.05927 7.512969,-4.882054 10.060699,-8.531576 2.43791,-3.470535 3.75747,-7.651961 4.01039,-11.870207 0.3936,-4.949537 -0.11943,-9.974419 -1.60605,-14.716356 -1.4604,-4.719071 -3.72429,-9.163258 -6.42481,-13.288099 -0.15636,-0.244737 -0.4259,-0.625272 -0.75318,-0.395293 -1.479631,0.830517 -2.865989,1.847077 -4.092088,3.020519 -0.284362,0.20994 -0.297072,0.788555 0.143974,0.794561 1.033262,0.08707 2.231325,0.384508 2.812784,1.339812 0.3739,0.703025 -0.0192,1.600723 -0.701458,1.949587 -1.18412,0.693112 -2.612865,0.722727 -3.923454,0.493056 -0.858429,-0.215059 -1.928336,-0.671424 -2.077056,-1.659242 -0.04898,-0.282456 0.119427,-0.782812 -0.319062,-0.76935 -2.145182,-0.273543 -4.2328,0.733318 -5.893301,2.009495 -0.668462,0.559419 -1.403136,1.086599 -1.914268,1.799881 -0.224315,0.50828 0.392615,0.836589 0.726622,1.087656 0.467972,0.190405 1.005178,0.04944 1.485191,0.228939 1.94393,0.484601 3.502546,1.806846 5.047449,2.999381 1.238381,0.99465 2.402075,2.085822 3.51032,3.2287 -0.155583,0.134981 -0.319868,0.373879 -0.494321,0.423504 -1.539992,-1.448902 -3.066891,-2.923577 -4.790515,-4.158131 -1.167365,-0.812602 -2.388437,-1.720371 -3.838403,-1.903837 -0.438858,-0.04789 -0.917183,0.02879 -1.198719,0.405387 -0.815776,0.727897 -1.465744,1.8134 -1.224197,2.943067 0.322371,1.544779 1.509301,2.706763 2.654732,3.705656 0.82097,0.701733 1.720689,1.305258 2.654818,1.845173 -0.156948,0.148491 -0.182497,0.728527 -0.452463,0.5229 -0.322337,-0.125804 -0.629163,-0.493183 -0.992688,-0.405295 -0.865491,0.753377 -1.616183,1.642355 -2.559096,2.31026 -1.925704,1.457372 -4.270509,2.3372 -6.662554,2.580238 -1.741237,0.02092 -3.499914,0.135857 -5.205574,-0.263943 -1.389383,-0.252148 -2.718155,-0.732813 -4.044979,-1.199318 -0.364872,-0.116143 -0.666732,0.228902 -0.953359,0.37229 -0.129558,-0.180381 -0.244388,-0.371652 -0.342825,-0.570701 1.288076,-0.952915 2.549471,-2.011456 3.466692,-3.340234 0.536923,-0.82315 1.018438,-1.939609 0.464603,-2.876012 -0.515466,-0.841757 -1.439986,-1.342961 -2.337052,-1.687568 -0.737725,-0.26264 -1.551256,-0.197807 -2.313277,-0.09358 -2.319646,0.578259 -4.199875,2.208641 -5.792488,3.919281 -0.633394,0.674989 -1.182599,1.421196 -1.764455,2.138767 -0.165602,-0.116674 -0.432289,-0.234862 -0.529855,-0.387211 1.494927,-2.053658 3.25314,-3.96694 5.428863,-5.295886 1.13856,-0.699122 2.465273,-1.121624 3.812115,-1.153727 0.293464,0.0267 0.432486,-0.213974 0.497149,-0.461104 0.98563,-2.147852 2.231473,-4.207173 4.14685,-5.646208 1.330961,-1.012364 3.018556,-1.578895 4.690412,-1.465375 2.064937,-0.0385 3.99698,0.916524 5.761889,1.905824 0.394579,0.196155 0.647799,-0.334823 0.924343,-0.526506 1.838375,-1.860813 4.205895,-3.488064 6.907264,-3.670095 0.653821,-0.09188 1.319294,0.130254 1.976523,0.06019 0.538074,-0.297661 1.198929,-0.365266 1.610382,-0.875385 1.50074,-1.599226 3.183689,-3.037588 5.081802,-4.145667 0.22756,-0.120015 0.55922,-0.388046 0.30708,-0.653578 -1.695705,-2.10591 -4.024834,-3.554003 -6.138365,-5.194781 -2.274962,-1.715867 -4.481938,-3.507288 -6.441446,-5.580112 -0.230284,-0.300536 -0.714705,-0.27122 -0.858642,0.09598 -0.434667,0.753077 -0.670162,1.617932 -1.176303,2.32567 -0.411968,0.364723 -1.204856,5.17e-4 -1.081966,-0.575 0.33921,-1.147356 0.973845,-2.183555 1.41088,-3.298124 0.230043,-0.420544 -0.286259,-0.74488 -0.483704,-1.061971 -0.185298,-0.193204 -0.368216,-0.482609 -0.665031,-0.486748 z M 84.463777,52.18791 c 0.837351,-0.04758 1.423799,0.860314 1.18174,1.61827 -0.236339,1.057845 -1.938866,1.227297 -2.350582,0.205365 -0.398222,-0.822901 0.223695,-1.891957 1.168842,-1.823635 z m 5.692587,1.204123 c 1.01515,-0.04073 1.886029,0.95088 1.721079,1.952116 -0.08624,0.924171 -0.999672,1.625507 -1.915443,1.498895 -0.924342,-0.08071 -1.627477,-0.991511 -1.50762,-1.906213 0.04832,-0.863729 0.841518,-1.568701 1.701984,-1.544798 z m -15.812812,1.212848 c 0.662367,-0.01069 0.92637,0.831197 0.558054,1.296817 -0.212132,0.505572 0.380246,0.855877 0.68957,1.145953 0.621625,0.477529 1.500751,0.99261 2.287859,0.60927 0.52311,-0.294773 0.717745,-0.888752 1.037453,-1.351066 0.28065,-0.238625 0.686424,0.184845 0.461948,0.475478 -0.329042,0.881009 -1.106758,1.721595 -2.116511,1.685165 -0.680401,0.04982 -1.222108,-0.427661 -1.856767,-0.551352 -0.466938,-0.02152 -0.390528,0.559457 -0.574874,0.836513 -0.453287,0.81686 -1.53174,0.865681 -2.355894,0.767846 -0.494872,-0.101668 -1.079413,-0.137233 -1.452864,-0.518599 -0.0842,-0.245207 0.134269,-0.547115 0.409848,-0.407698 0.854852,0.182078 1.850324,0.549151 2.657999,0.02377 0.695283,-0.506471 0.510668,-1.488125 0.581828,-2.229563 -0.119149,-0.386719 -0.694597,-0.127934 -0.913019,-0.463844 -0.51883,-0.453777 -0.138174,-1.408564 0.58537,-1.318694 z m -9.024856,1.115351 c 0.858648,-0.05188 1.496975,0.909009 1.189834,1.690098 -0.259977,0.903059 -1.583939,1.106404 -2.149643,0.381647 -0.610893,-0.657108 -0.217011,-1.834851 0.639494,-2.037475 0.104802,-0.02452 0.21274,-0.03539 0.320315,-0.03427 z m -4.869984,3.402325 c 1.060069,0.01205 1.932045,1.087194 1.806438,2.113729 -0.0276,1.288222 -1.573333,2.198515 -2.731345,1.664932 -0.79582,-0.326001 -1.291986,-1.196697 -1.165554,-2.040383 0.03592,-1.040462 1.098287,-1.850603 2.090461,-1.738278 z m 43.635498,20.505885 c 1.19686,-0.04556 2.56846,0.520012 3.02307,1.728397 0.3971,0.907517 0.36478,1.953232 0.20221,2.893732 -0.37196,1.700573 -0.71359,3.411857 -1.17048,5.091537 -0.19744,-0.05743 -0.49443,-0.04469 -0.60737,-0.168441 0.39274,-1.965681 0.97093,-3.903231 1.22106,-5.897068 0.10517,-1.088616 -0.33065,-2.408581 -1.46133,-2.779272 -1.187,-0.362962 -2.65112,-0.257499 -3.55382,0.683121 -1.18301,1.239295 -1.50505,3.024725 -1.66961,4.668286 -0.0688,0.758129 -0.064,1.519972 -0.07171,2.280398 -0.182634,-0.0471 -0.605326,0.164279 -0.662684,-0.03737 -0.0017,-2.189135 0.08844,-4.561689 1.230484,-6.525868 0.62926,-0.928445 1.5934,-1.80305 2.78591,-1.885322 0.24193,-0.03134 0.49996,-0.05033 0.73427,-0.05212 z m -36.613342,9.137022 c 1.554905,0.03585 2.73741,1.265124 3.516515,2.494617 0.952667,1.504847 1.56404,3.199126 2.049109,4.904507 -0.206673,-0.01501 -0.593749,0.306051 -0.681029,0.0619 -0.635888,-2.121378 -1.416471,-4.325534 -3.03238,-5.910784 -0.691805,-0.674355 -1.725283,-1.140809 -2.682532,-0.769364 -1.249709,0.357829 -2.502058,1.248512 -2.742852,2.603369 -0.179332,0.951868 0.05179,1.974307 0.675176,2.724955 0.800538,1.148824 1.635631,2.27549 2.54189,3.34359 -0.169069,0.15619 -0.338248,0.312338 -0.511772,0.463591 -1.127077,-1.355831 -2.205553,-2.769042 -3.134489,-4.262991 -0.291339,-0.865546 -0.357567,-1.781838 -0.165026,-2.668243 0.47115,-1.636262 2.094162,-2.725543 3.707086,-2.963645 0.152699,-0.0178 0.306604,-0.02522 0.460304,-0.0215 z m 23.560958,7.672018 c 0.61583,-0.0019 0.582945,1.041472 -0.02175,1.023417 -0.62167,0.109032 -0.745302,-0.990389 -0.116846,-1.018611 0.0458,-0.0069 0.09243,-0.0084 0.138597,-0.0048 z M 38.161669,88.596889 c -0.975675,0.02339 -2.088047,0.172722 -2.756871,0.961309 -0.466483,0.670014 -0.476708,1.534982 -0.473277,2.321005 0.01509,0.912258 0.434071,1.899697 1.316245,2.278696 1.137696,0.492892 2.419746,0.205857 3.565401,-0.106224 0.67293,-0.172324 1.303389,-0.477168 1.964138,-0.679053 1.610225,-0.08427 3.14698,0.711496 4.289165,1.800049 1.317112,1.191129 2.294013,2.796892 3.03047,4.409777 0.639401,1.322782 1.006683,2.754792 1.619901,4.087482 0.834401,1.81458 2.009178,3.46801 3.462799,4.83894 2.159239,2.13918 5.108552,3.40036 8.123183,3.66233 3.977302,0.3537 7.942212,-0.65743 11.599251,-2.15506 0.5793,-0.26558 1.211614,-0.44578 1.737635,-0.81087 0.318305,-0.26672 0.108065,-0.81577 -0.296411,-0.83667 -1.449598,-0.17502 -2.895819,-0.3735 -4.332251,-0.68152 -0.45926,-0.0526 -0.9614,-0.34178 -1.390003,-0.0411 -2.491956,1.27892 -5.573802,1.40761 -8.118637,0.20098 -2.19747,-1.01553 -3.906635,-2.84412 -5.251165,-4.81768 -0.538185,-0.79548 -0.990113,-1.64446 -1.457113,-2.48109 C 54.315021,99.987006 53.686254,99.581812 53.165766,99.067164 50.58387,96.715449 48.355165,93.942193 46.590293,90.918192 46.4479,90.619749 46.204338,90.388307 45.881471,90.299147 43.860076,89.555195 41.772215,88.9461 39.629943,88.679056 c -0.487169,-0.05621 -0.977691,-0.08924 -1.468274,-0.08217 z"
       inkscape:label="cat_colour" />
  </g>
</svg>
