<?xml version="1.0" encoding="UTF-8" standalone="no"?>
<svg
   viewBox="0 0 24 24"
   version="1.1"
   id="svg1"
   sodipodi:docname="clock-time-three-outline.svg"
   inkscape:version="1.4 (86a8ad7, 2024-10-11)"
   xmlns:inkscape="http://www.inkscape.org/namespaces/inkscape"
   xmlns:sodipodi="http://sodipodi.sourceforge.net/DTD/sodipodi-0.dtd"
   xmlns="http://www.w3.org/2000/svg"
   xmlns:svg="http://www.w3.org/2000/svg">
  <defs
     id="defs1" />
  <sodipodi:namedview
     id="namedview1"
     pagecolor="#ffffff"
     bordercolor="#000000"
     borderopacity="0.25"
     inkscape:showpageshadow="2"
     inkscape:pageopacity="0.0"
     inkscape:pagecheckerboard="0"
     inkscape:deskcolor="#d1d1d1"
     showgrid="false"
     inkscape:zoom="33.625"
     inkscape:cx="11.98513"
     inkscape:cy="12"
     inkscape:window-width="1920"
     inkscape:window-height="1009"
     inkscape:window-x="-8"
     inkscape:window-y="-8"
     inkscape:window-maximized="1"
     inkscape:current-layer="svg1" />
  <path
     d="M12 20C16.4 20 20 16.4 20 12S16.4 4 12 4 4 7.6 4 12 7.6 20 12 20M12 2C17.5 2 22 6.5 22 12S17.5 22 12 22C6.5 22 2 17.5 2 12C2 6.5 6.5 2 12 2M17 11.5V13H11V7H12.5V11.5H17Z"
     id="path1"
     style="opacity:0" />
  <path
     style="fill:#ffffff;fill-opacity:1;stroke-width:0.016119"
     d="M 11.941973,3.8224907 C 9.7979952,3.8224501 7.6862272,4.7337974 6.1867819,6.2607335 4.8237636,7.6356229 3.960367,9.5108509 3.8420074,11.446039 c -0.054812,0.964765 0.024288,1.941909 0.3154043,2.866867 0.4164443,1.398811 1.2103437,2.683967 2.2886156,3.669556 1.4773452,1.397302 3.4994026,2.199876 5.5331767,2.199698 0.947327,-0.0071 1.900954,-0.151622 2.791068,-0.490187 1.245087,-0.450511 2.36806,-1.212718 3.2628,-2.187169 1.224328,-1.323881 1.975993,-3.07179 2.124979,-4.866212 0.04539,-0.965983 -0.0066,-1.946744 -0.293467,-2.8760222 C 19.443383,8.2981817 18.609899,6.9539706 17.469894,5.9405098 15.983243,4.5695081 13.963869,3.7974719 11.941973,3.8224907 Z m -0.194761,3.3514754 c 0.191082,0 0.382164,0 0.573246,0 0.006,1.4491271 -0.01204,2.9020039 0.009,4.3487929 0.05877,0.262691 0.38547,0.14683 0.577572,0.171653 1.301367,0 2.602734,0 3.904101,0 0,0.372251 0,0.744501 0,1.116752 -1.879066,0 -3.758132,0 -5.637198,0 0,-1.879066 0,-3.758132 0,-5.6371979 0.191082,0 0.382164,0 0.573246,0 z"
     id="path2" />
</svg>
