<?xml version="1.0" encoding="UTF-8" standalone="no"?>
<svg
   viewBox="0 0 24 24"
   version="1.1"
   id="svg1"
   sodipodi:docname="message.svg"
   inkscape:version="1.4 (86a8ad7, 2024-10-11)"
   xmlns:inkscape="http://www.inkscape.org/namespaces/inkscape"
   xmlns:sodipodi="http://sodipodi.sourceforge.net/DTD/sodipodi-0.dtd"
   xmlns="http://www.w3.org/2000/svg"
   xmlns:svg="http://www.w3.org/2000/svg">
  <defs
     id="defs1" />
  <sodipodi:namedview
     id="namedview1"
     pagecolor="#ffffff"
     bordercolor="#000000"
     borderopacity="0.25"
     inkscape:showpageshadow="2"
     inkscape:pageopacity="0.0"
     inkscape:pagecheckerboard="0"
     inkscape:deskcolor="#d1d1d1"
     showgrid="false"
     inkscape:zoom="33.625"
     inkscape:cx="11.98513"
     inkscape:cy="12"
     inkscape:window-width="1920"
     inkscape:window-height="1009"
     inkscape:window-x="-8"
     inkscape:window-y="-8"
     inkscape:window-maximized="1"
     inkscape:current-layer="svg1" />
  <path
     d="m 4,2 h 16 a 2,2 0 0 1 2,2 V 22 L 18,18 H 4 A 2,2 0 0 1 2,16 V 4 C 2,2.89 2.9,2 4,2 Z"
     id="path1" />
  <path
     style="fill:#ffffff;fill-opacity:1;stroke-width:0.016119"
     d="M 9.3571096,1.8224907 C 7.4682302,1.8320044 5.5786037,1.8045593 3.6902252,1.8513958 3.1049222,1.9063467 2.5780598,2.2769251 2.2279856,2.7360595 2.0103751,3.0379458 1.854181,3.3901371 1.8588026,3.7688818 c -0.062239,1.7320146 -0.025247,3.4660383 -0.0361,5.1988809 0.0086,2.4011623 -0.019074,4.8027923 0.021861,7.2036473 0.034785,1.077034 1.0350496,2.022678 2.1147072,1.987705 3.1599582,0.03526 6.3203602,0.01113 9.4804942,0.01857 1.494986,0 2.989971,0 4.484956,0 1.224863,1.21099 2.420519,2.452241 3.670365,3.637546 0.136998,0.165793 0.448927,0.266974 0.571503,0.03491 0.02587,-1.179907 0.0036,-2.363849 0.01092,-3.545306 -0.0068,-4.507868 0.01384,-9.0158373 -0.01274,-13.523638 -0.02612,-0.5121972 0.02546,-1.0404804 -0.109529,-1.5400821 -0.284427,-0.6812489 -0.897048,-1.2356842 -1.629124,-1.379763 -1.185627,-0.057876 -2.374321,-0.025293 -3.561163,-0.037633 -2.502614,-0.00197 -5.005228,-0.00129 -7.507842,-0.00123 z"
     id="path2" />
</svg>
