<?xml version="1.0" encoding="UTF-8" standalone="no"?>
<svg
   viewBox="0 0 24 24"
   version="1.1"
   id="svg1"
   sodipodi:docname="note-multiple-outline.svg"
   inkscape:version="1.4 (86a8ad7, 2024-10-11)"
   xmlns:inkscape="http://www.inkscape.org/namespaces/inkscape"
   xmlns:sodipodi="http://sodipodi.sourceforge.net/DTD/sodipodi-0.dtd"
   xmlns="http://www.w3.org/2000/svg"
   xmlns:svg="http://www.w3.org/2000/svg">
  <defs
     id="defs1" />
  <sodipodi:namedview
     id="namedview1"
     pagecolor="#00ffff"
     bordercolor="#000000"
     borderopacity="0.25"
     inkscape:showpageshadow="2"
     inkscape:pageopacity="0.0"
     inkscape:pagecheckerboard="0"
     inkscape:deskcolor="#d1d1d1"
     inkscape:zoom="33.625"
     inkscape:cx="11.98513"
     inkscape:cy="12"
     inkscape:window-width="1920"
     inkscape:window-height="1009"
     inkscape:window-x="-8"
     inkscape:window-y="-8"
     inkscape:window-maximized="1"
     inkscape:current-layer="svg1" />
  <path
     d="M3,6V22H21V24H3A2,2 0 0,1 1,22V6H3M16,9H21.5L16,3.5V9M7,2H17L23,8V18A2,2 0 0,1 21,20H7C5.89,20 5,19.1 5,18V4A2,2 0 0,1 7,2M7,4V18H21V11H14V4H7Z"
     id="path1"
     style="fill:#ffffff;fill-opacity:1" />
  <path
     style="fill:#ffffff;stroke-width:0.016119"
     d="m 6.9027068,3.836954 c -0.1635715,0.1795436 -0.050893,0.4490052 -0.084108,0.6686222 0,4.4907063 0,8.9814128 0,13.4721188 0.03493,0.277968 0.3629511,0.186668 0.5568657,0.199989 4.5402725,0 9.0805455,0 13.6208185,0 0.277968,-0.03493 0.186668,-0.362952 0.199988,-0.556866 0,-2.200744 0,-4.401487 0,-6.602231 -0.03493,-0.277968 -0.362951,-0.186668 -0.556866,-0.199988 -2.153907,0 -4.307814,0 -6.461721,0 0,-2.2728664 0,-4.5457327 0,-6.818599 -0.03493,-0.277968 -0.362952,-0.1866681 -0.556866,-0.1999884 -2.200744,0 -4.4014873,0 -6.6022308,0 -0.038627,0.012314 -0.077254,0.024628 -0.1158804,0.036942 z"
     id="path2" />
</svg>
