<?xml version="1.0" encoding="UTF-8" standalone="no"?>
<!-- Created with Inkscape (http://www.inkscape.org/) -->

<svg
   version="1.1"
   id="svg1"
   width="167"
   height="157"
   viewBox="0 0 167 157"
   sodipodi:docname="penguin.svg"
   inkscape:version="1.4 (86a8ad7, 2024-10-11)"
   xmlns:inkscape="http://www.inkscape.org/namespaces/inkscape"
   xmlns:sodipodi="http://sodipodi.sourceforge.net/DTD/sodipodi-0.dtd"
   xmlns="http://www.w3.org/2000/svg"
   xmlns:svg="http://www.w3.org/2000/svg">
  <defs
     id="defs1">
    <inkscape:path-effect
       effect="spiro"
       id="path-effect28"
       is_visible="true"
       lpeversion="1" />
    <inkscape:path-effect
       effect="spiro"
       id="path-effect27"
       is_visible="true"
       lpeversion="1" />
    <inkscape:path-effect
       effect="spiro"
       id="path-effect28-4"
       is_visible="true"
       lpeversion="1" />
  </defs>
  <sodipodi:namedview
     id="namedview1"
     pagecolor="#ffffff"
     bordercolor="#000000"
     borderopacity="0.25"
     inkscape:showpageshadow="2"
     inkscape:pageopacity="0.0"
     inkscape:pagecheckerboard="0"
     inkscape:deskcolor="#d1d1d1"
     inkscape:zoom="3.4417194"
     inkscape:cx="89.780707"
     inkscape:cy="74.526703"
     inkscape:window-width="1920"
     inkscape:window-height="1009"
     inkscape:window-x="-8"
     inkscape:window-y="-8"
     inkscape:window-maximized="1"
     inkscape:current-layer="g1" />
  <g
     inkscape:groupmode="layer"
     inkscape:label="Image"
     id="g1">
    <path
       id="path23"
       d="m 98.390625,73.947266 c -0.425016,-0.09888 -0.87835,-0.108654 -1.353516,0.0098 -0.950331,0.236838 -1.980112,0.98595 -3.046875,2.546875 l -0.01172,0.01758 0.0039,0.01953 c 0,0 0.06235,0.323167 0.289062,0.49414 0.113355,0.08549 0.271684,0.128729 0.466797,0.06641 0.195113,-0.06232 0.427235,-0.223542 0.710938,-0.537109 0.543308,-0.600499 1.569722,-0.794503 2.572265,-0.667969 1.002544,0.126535 1.975025,0.573756 2.404294,1.212891 0.22457,0.33436 0.42974,0.511591 0.61719,0.585937 0.18745,0.07435 0.35566,0.04 0.48633,-0.03906 0.26133,-0.158114 0.39257,-0.480469 0.39258,-0.480469 l 0.008,-0.02148 -0.01,-0.02148 c 0,0 -0.90063,-1.718468 -2.345699,-2.662109 -0.361269,-0.23591 -0.758578,-0.42456 -1.183594,-0.523437 z m -0.02148,0.09766 c 0.411165,0.09583 0.796815,0.276926 1.15039,0.507812 1.395985,0.911591 2.272065,2.558469 2.294915,2.601563 -0.01,0.02222 -0.12546,0.287494 -0.33789,0.416015 -0.11062,0.06693 -0.23896,0.0945 -0.39843,0.03125 -0.15948,-0.06325 -0.35039,-0.224289 -0.56836,-0.548828 -0.45582,-0.678662 -1.451284,-1.126702 -2.47461,-1.255859 -1.023325,-0.129157 -2.082354,0.0606 -2.660156,0.699219 -0.276852,0.305995 -0.497049,0.455795 -0.666016,0.509765 -0.168966,0.05397 -0.285146,0.01846 -0.376953,-0.05078 -0.176253,-0.132922 -0.236899,-0.393917 -0.242187,-0.416016 1.051761,-1.530551 2.059022,-2.256682 2.972656,-2.484375 0.459404,-0.114491 0.895475,-0.10559 1.306641,-0.0098 z M 101.875,77.15625 c 0,0 -3.59375,-6.84375 -7.84375,-0.625 0,0 0.26009,1.238454 1.381201,-6.69e-4 1.121111,-1.239123 4.169747,-0.767076 5.054839,0.550721 0.88508,1.317797 1.40771,0.07495 1.40771,0.07495 z M 75.666016,74.076172 c -0.434428,-0.05539 -0.889266,-0.03778 -1.353516,0.08789 -0.928501,0.251352 -1.892774,0.929513 -2.814453,2.277344 v 0.002 c 0,0 -0.147456,0.237773 -0.314453,0.548828 -0.166998,0.311056 -0.354504,0.694004 -0.433594,0.992188 -0.03955,0.149092 -0.05603,0.278394 -0.01563,0.376953 0.0202,0.04928 0.0591,0.09025 0.111328,0.109375 0.05223,0.01913 0.114529,0.01841 0.1875,0.002 0.291884,-0.06582 0.793026,-0.38901 1.664063,-1.130859 l 0.0039,-0.0039 0.0039,-0.0039 c 0.42339,-0.588148 1.008533,-0.878435 1.65625,-0.986328 0.647718,-0.107893 1.357107,-0.03177 2.013672,0.121094 1.31313,0.305718 2.414062,0.910156 2.414062,0.910156 l 0.002,0.002 0.0039,0.002 c 0.272547,0.100202 0.462151,0.102258 0.591797,0.0332 0.129646,-0.06906 0.184709,-0.205175 0.201172,-0.341797 0.03293,-0.273245 -0.07422,-0.580078 -0.07422,-0.580078 l -0.002,-0.0098 -0.0059,-0.0059 c 0,0 -1.069562,-1.360064 -2.607422,-2.046875 -0.384464,-0.171703 -0.797993,-0.300081 -1.232421,-0.355469 z m -0.01172,0.09766 c 0.422879,0.05399 0.827903,0.181162 1.205078,0.349609 1.501687,0.670657 2.552697,1.997383 2.5625,2.009766 0.0028,0.0087 0.09464,0.294975 0.06641,0.529297 -0.01433,0.118917 -0.05577,0.216267 -0.148437,0.265625 -0.09267,0.04936 -0.251063,0.05605 -0.509766,-0.03906 l 0.0059,0.0039 c 0,0 -1.110005,-0.610405 -2.439453,-0.919922 -0.664724,-0.154758 -1.383801,-0.236102 -2.050781,-0.125 -0.66698,0.111101 -1.282765,0.416273 -1.722656,1.027344 l 0.0078,-0.0078 c -0.867244,0.73862 -1.374325,1.052219 -1.61914,1.107422 -0.0612,0.0138 -0.104038,0.01178 -0.13086,0.002 -0.02682,-0.0098 -0.04298,-0.02612 -0.05469,-0.05469 -0.02342,-0.05713 -0.01769,-0.172155 0.01953,-0.3125 0.07445,-0.280692 0.260338,-0.66059 0.425781,-0.96875 0.164996,-0.307327 0.309759,-0.541697 0.310547,-0.542969 v -0.002 c 0.911875,-1.332987 1.856476,-1.990377 2.757813,-2.234375 0.450827,-0.122042 0.891574,-0.14188 1.314453,-0.08789 z m -2.990234,3.130855 c -3.476562,2.960938 -1.124117,-0.835035 -1.124117,-0.835035 3.667704,-5.363522 7.926973,0.03944 7.926973,0.03944 0,0 0.408082,1.21747 -0.654418,0.826845 0,0 -4.421876,-2.429688 -6.148438,-0.03125 z m 31.650288,24.635993 c 0,0 3.70886,1.41996 5.5315,3.85721 1.82264,2.43726 2.2677,-10.448385 -6.37924,-13.966504 l 0.42387,5.054647 z M 70.355402,91.446082 c 0,0 -11.11811,6.346812 -5.913446,14.222288 l 3.184433,-2.94474 c 0,0 0.736186,-1.11284 1.181322,0.18833 0,0 2.042795,10.37597 15.245346,12.83169 1.154632,0.21476 2.280647,0.15351 3.537522,0 4.877703,-0.59592 11.928956,0.0778 16.723771,-13.80297 l -3.15721,2.16531 c 0,0 -2.435708,9.45635 -11.80342,10.31582 -1.639414,0.15041 -3.26658,0.18778 -4.825464,-0.15832 -4.538895,-1.00773 -15.699705,-3.80547 -10.541531,-19.771345 z m 39.617258,-19.022254 0.0293,0.142578 c 0,0 0.38392,1.906079 -0.27734,4.708985 -0.66126,2.802905 -2.368,6.498811 -6.55469,10.070312 l -0.0176,0.01563 0.10743,3.130859 0.0762,-0.05469 c 0,0 2.67432,-1.938333 5.10156,-4.931641 2.42724,-2.993307 4.61166,-7.048714 3.61328,-11.283203 l -0.002,-0.01563 z m 0.13672,0.25 1.8457,1.587891 c 0.97847,4.183178 -1.18085,8.203602 -3.5957,11.18164 -2.36308,2.914184 -4.89114,4.766417 -5.00782,4.851563 l -0.0977,-2.890625 c 4.1875,-3.579509 5.90385,-7.288844 6.56836,-10.105469 0.63355,-2.685463 0.31938,-4.450519 0.28711,-4.625 z m -6.90637,14.709739 c 8.38909,-7.156413 6.84824,-14.826444 6.84824,-14.826444 l 1.95175,1.677819 c 1.98599,8.423338 -8.69727,16.161851 -8.69727,16.161851 z m -40.419807,-15.785911 -2.222656,1.685547 -0.0039,0.01953 c 0,0 -0.598258,11.298487 10.106919,17.886289 l 0.06445,0.04102 -0.651842,-3.798398 -0.02148,-0.01953 C 62.474388,81.436649 62.779304,71.70313 62.779304,71.70313 Z m -0.09961,0.199219 c -0.0074,0.286502 -0.195622,9.753711 7.287109,15.673828 l 0.681139,3.585508 C 60.100038,84.510168 60.647795,73.388293 60.65625,73.335937 Z m 7.968248,19.259336 C 59.968584,84.481899 60.606941,73.31043 60.606941,73.31043 l 2.122955,-1.609337 c 0,0 -0.308171,9.758745 7.293378,15.750956 z M 88.810522,64.45925 h -4.532458 l 2.180711,3.256813 z"
       inkscape:label="outline"
       sodipodi:nodetypes="cccccssssssscccscccscssssssscsccccsscccsccssssccccsscccsscccscccscssccssccsssssccsccccccccscccccccscccssccccsccccscccccsccscccccccccccccccccccccccccccccc"
       style="display:inline;stroke:none" />
    <path
       style="font-variation-settings:normal;display:inline;opacity:1;vector-effect:none;fill:#fea621;fill-opacity:1;stroke:none;stroke-width:0.1;stroke-linecap:butt;stroke-linejoin:miter;stroke-miterlimit:4;stroke-dasharray:none;stroke-dashoffset:0;stroke-opacity:1;-inkscape-stroke:none;stop-color:#000000;stop-opacity:1"
       d="m 90.38393,79.16573 h -7.10305 l 3.449704,5.975061 z"
       id="path26"
       inkscape:label="nose" />
    <path
       id="dimples"
       style="font-variation-settings:normal;display:inline;vector-effect:none;fill:#f9dac4;fill-opacity:1;stroke:none;stroke-width:0.1;stroke-linecap:butt;stroke-linejoin:miter;stroke-miterlimit:4;stroke-dasharray:none;stroke-dashoffset:0;stroke-opacity:1;-inkscape-stroke:none;stop-color:#000000"
       transform="translate(22.633632,-0.18420727)"
       inkscape:path-effect="#path-effect28-4"
       inkscape:original-d="m 75.023416,84.910644 c -0.01811,1.883281 0.03622,-3.748455 0.05433,-5.649845 0.01811,-1.90139 -0.03622,3.766563 -0.05433,5.649845 z m -22.633632,0.184207 c -0.01811,1.883281 0.03622,-3.748455 0.05433,-5.649845 0.01811,-1.90139 -0.03622,3.766563 -0.05433,5.649845 z"
       d="m 75.023416,84.910644 c 0.739563,0.0071 1.4775,-0.290271 2.005478,-0.808192 0.527979,-0.517921 0.839498,-1.250003 0.84661,-1.989565 0.0071,-0.739563 -0.290271,-1.4775 -0.808193,-2.005479 -0.517921,-0.527979 -1.250002,-0.839497 -1.989565,-0.846609 -0.739563,-0.0071 -1.4775,0.290271 -2.005478,0.808192 -0.527979,0.517921 -0.839498,1.250003 -0.84661,1.989566 -0.0071,0.739562 0.290271,1.477499 0.808193,2.005478 0.517921,0.527979 1.250002,0.839497 1.989565,0.846609 z m -22.633632,0.184207 c 0.739563,0.0071 1.4775,-0.290271 2.005478,-0.808192 0.527979,-0.517921 0.839498,-1.250003 0.84661,-1.989565 0.0071,-0.739563 -0.290271,-1.4775 -0.808193,-2.005479 -0.517921,-0.527979 -1.250002,-0.839497 -1.989565,-0.846609 -0.739563,-0.0071 -1.4775,0.290271 -2.005478,0.808192 -0.527979,0.517921 -0.839498,1.250003 -0.84661,1.989566 -0.0071,0.739562 0.290271,1.477499 0.808193,2.005478 0.517921,0.527979 1.250002,0.839497 1.989565,0.846609 z" />
    <path
       style="font-variation-settings:normal;display:inline;opacity:1;vector-effect:none;fill:#359980;fill-opacity:1;stroke:none;stroke-width:0.1;stroke-linecap:butt;stroke-linejoin:miter;stroke-miterlimit:4;stroke-dasharray:none;stroke-dashoffset:0;stroke-opacity:1;-inkscape-stroke:none;stop-color:#000000;stop-opacity:1"
       d="m 103.1078,87.040974 1.14149,14.635476 c 0,0 0.39756,1.10434 -3.09215,2.42954 0,0 -2.341193,-1.3252 -1.855283,-2.03198 0,0 -3.57806,1.89946 -4.991615,-0.35339 -1.413554,-2.252865 0.265042,-5.742575 0.265042,-5.742575 0,0 -11.492472,3.43336 -20.588559,-1.4859 0,0 -2.817339,-1.547198 -3.631323,-3.046063 l -0.323753,-4.334798 c 0,0 16.731936,7.615891 33.076151,-0.07031 z"
       id="path28"
       sodipodi:nodetypes="ccccsccccc"
       inkscape:label="scarf" />
    <path
       id="path31"
       style="font-variation-settings:normal;display:inline;opacity:1;vector-effect:none;fill:#359980;fill-opacity:1;stroke:none;stroke-width:0.1;stroke-linecap:butt;stroke-linejoin:miter;stroke-miterlimit:4;stroke-dasharray:none;stroke-dashoffset:0;stroke-opacity:1;-inkscape-stroke:none;stop-color:#000000;stop-opacity:1"
       d="m 59.192597,61.44545 c 0,0 3.357193,-0.220868 3.003804,-2.3412 m 52.062829,6.677582 c 6.12215,6.247088 -2.21043,8.425196 -2.21043,8.425196 0,0 -11.58754,-12.589028 -29.627928,-10.389683 -6.524924,0.795469 -13.010509,0.168295 -21.864225,9.485388 0,0 -12.893354,-3.110914 -1.36405,-11.857283 m 3.003804,-2.3412 c -2.297026,0.441736 -3.268845,-1.590249 -3.268845,-1.590249 1.23686,-6.979425 8.702195,-8.348806 8.702195,-8.348806 15.239885,-3.533887 27.38762,-2.650415 36.178159,0.750951 8.79055,3.401365 9.98323,10.336617 9.98323,10.336617 l -0.75095,2.429547 c 0,0 -2.65041,0.61843 -1.5019,0.927645 1.14851,0.309215 2.72094,2.171877 2.72094,2.171877 L 59.192597,61.44545"
       inkscape:label="hat_first_layer"
       sodipodi:nodetypes="ccccscccccsccscc" />
    <path
       style="font-variation-settings:normal;display:inline;opacity:1;vector-effect:none;fill:#27685c;fill-opacity:1;stroke:none;stroke-width:0.1;stroke-linecap:butt;stroke-linejoin:miter;stroke-miterlimit:4;stroke-dasharray:none;stroke-dashoffset:0;stroke-opacity:1;-inkscape-stroke:none;stop-color:#000000;stop-opacity:1"
       d="m 103.80791,49.916146 c 0,0 -16.25786,-21.760686 -36.178159,-0.750951 -0.486831,0.315211 19.413214,-5.190482 36.178159,0.750951 z"
       id="path33"
       sodipodi:nodetypes="ccc"
       inkscape:label="hat_second_layer" />
    <path
       id="path9"
       style="font-variation-settings:normal;display:inline;opacity:1;vector-effect:none;fill:#27685c;fill-opacity:1;stroke:none;stroke-width:0.1;stroke-linecap:butt;stroke-linejoin:miter;stroke-miterlimit:4;stroke-dasharray:none;stroke-dashoffset:0;stroke-opacity:1;-inkscape-stroke:none;stop-color:#000000;stop-opacity:1"
       d="m 58.927556,57.514001 c 0,0 0.973059,1.866374 3.268845,1.590249 0,0 0.743481,2.044463 -3.003804,2.3412 0,0 -0.743735,-1.909635 -0.265041,-3.931449 z m 54.863584,2.738762 -0.75095,2.429547 c 0,0 -2.71745,0.488484 -1.59565,1.115145 1.1218,0.626661 2.22369,1.195311 3.55056,2.797283 0,0 0.19248,-2.931621 -1.20396,-6.341975 z"
       inkscape:label="first_second_layer_minis" />
    <path
       style="font-variation-settings:normal;display:inline;opacity:1;vector-effect:none;fill:#359980;fill-opacity:1;stroke:none;stroke-width:0.1;stroke-linecap:butt;stroke-linejoin:miter;stroke-miterlimit:4;stroke-dasharray:none;stroke-dashoffset:0;stroke-opacity:1;-inkscape-stroke:none;stop-color:#000000;stop-opacity:1"
       d="m 75.421928,42.861217 c 0,0 1.197119,-0.278203 1.094392,-3.308614 -3.359645,-2.948749 -2.388375,-3.1845 -2.388375,-3.1845 0,0 0.564992,-1.977472 3.569721,-1.386799 0.719081,-3.929262 2.182924,-4.109032 2.182924,-4.109032 0,0 1.617931,-0.462266 1.720657,0.667718 0.744762,1.207028 1.41248,0.410903 1.41248,0.410903 0,0 0.873169,-2.722234 3.492677,-1.104302 0.513629,2.516782 4.468572,2.080197 4.468572,2.080197 0,0 0.154089,3.852218 3.056093,4.519936 1.874746,2.414056 -0.537421,4.348777 -0.537421,4.348777 0,0 -9.442752,-3.865122 -18.07172,1.065716 z"
       id="path3"
       sodipodi:nodetypes="cccccccccccc"
       inkscape:label="top_hat_layer" />
    <path
       id="path2"
       style="display:inline;fill:#ffffff;stroke-width:0.0176777"
       d="m 84.244407,114.08755 c -2.003169,-0.42037 -4.266584,-1.24821 -5.875822,-2.14906 -4.197842,-2.34997 -6.175526,-6.77916 -5.4637,-12.236435 0.181919,-1.394698 0.970437,-4.81456 1.151944,-4.996067 0.03621,-0.03621 0.451609,0.1273 0.923106,0.363359 1.045443,0.523411 3.255262,1.257774 4.923131,1.636047 0.788362,0.1788 2.523211,0.316165 4.780421,0.378513 3.58613,0.09906 5.215531,-0.02121 8.087529,-0.596911 0.757606,-0.151866 1.410973,-0.242613 1.451925,-0.20166 0.04095,0.04095 -0.05042,0.468495 -0.203044,0.950094 -0.152627,0.481599 -0.284957,1.472256 -0.294064,2.20146 -0.01982,1.5867 0.433055,2.64491 1.337568,3.12544 0.703708,0.37385 2.231131,0.37633 3.239019,0.005 l 0.721688,-0.2657 0.470726,0.58994 c 0.2589,0.32447 0.709676,0.7311 1.001736,0.90362 0.62638,0.37001 0.62021,0.41172 -0.37285,2.52306 -2.159099,4.5904 -5.72965,7.30399 -10.466533,7.95449 -1.963856,0.26969 -3.493637,0.21727 -5.41278,-0.18546 z M 84.410871,90.303881 C 80.976885,90.063743 77.052667,89.330514 73.80427,88.322068 69.452755,86.971165 69.233415,86.848099 67.583924,84.831929 64.949962,81.612443 63.485248,77.969314 62.941745,73.28561 c -0.259397,-2.235388 -0.38496,-2.018736 2.377243,-4.101809 1.972644,-1.487638 4.546588,-2.868688 6.708216,-3.599294 4.265545,-1.441705 14.659229,-2.286223 19.426021,-1.578423 3.874456,0.575302 7.738651,1.818694 11.285315,3.631305 1.62848,0.832275 5.50256,3.329349 6.68623,4.309671 l 0.53033,0.43922 -0.0209,1.902238 c -0.0328,2.986519 -0.93792,5.726396 -2.81692,8.526995 -0.99033,1.476064 -3.578,4.289096 -3.85818,4.194184 -0.10907,-0.03695 -0.69025,0.153016 -1.29151,0.422145 -4.779139,2.139164 -11.744028,3.278523 -17.556739,2.872039 z m 4.245346,-8.115734 c 0.988874,-1.611408 1.762354,-2.965434 1.71884,-3.008947 -0.04351,-0.04351 -1.678343,-0.05754 -3.632955,-0.03118 l -3.553843,0.04794 1.709908,2.961009 c 0.94045,1.628556 1.766201,2.96101 1.835002,2.96101 0.0688,0 0.934173,-1.318424 1.923048,-2.929832 z m -12.130311,2.352399 c 0.885826,-0.507851 1.344228,-1.371116 1.344228,-2.531455 0,-1.613773 -1.168127,-2.765538 -2.804825,-2.765538 -1.627566,0 -2.68032,0.977803 -2.816143,2.615649 -0.194145,2.341126 2.224824,3.857724 4.27674,2.681344 z m 22.627417,-0.176777 c 0.885827,-0.507851 1.344227,-1.371115 1.344227,-2.531455 0,-2.724822 -3.565324,-3.856586 -5.147861,-1.634117 -0.609257,0.85562 -0.667355,2.346305 -0.122683,3.147807 0.959953,1.412603 2.528437,1.81918 3.926317,1.017765 z m -26.934927,-6.53783 c 1.708021,-1.39369 1.718649,-1.398114 3.180363,-1.323907 0.959366,0.0487 1.617183,0.199271 2.363653,0.541017 0.568881,0.260442 1.22359,0.473531 1.454909,0.473531 0.36099,0 0.42058,-0.08571 0.42058,-0.604964 0,-0.502408 -0.142348,-0.727504 -0.83969,-1.327811 -2.359466,-2.031146 -4.637354,-2.108211 -6.52482,-0.220745 -0.803002,0.803003 -1.645929,2.287535 -1.649375,2.904821 -0.0029,0.525117 0.621249,0.352102 1.59438,-0.441942 z m 29.594234,-0.297491 c 0.29648,-0.327594 0.28729,-0.373575 -0.2228,-1.114965 -1.55987,-2.267187 -3.464043,-3.093846 -5.246532,-2.277678 -0.95721,0.438289 -2.427506,2.028525 -2.353946,2.545972 0.08078,0.568194 0.746811,0.600638 1.3807,0.06726 1.458125,-1.226931 3.645843,-1.00018 5.062948,0.524761 0.63376,0.681979 0.94151,0.738783 1.37963,0.254655 z M 87.745974,66.133039 c 0.596372,-0.820831 1.084315,-1.538661 1.084315,-1.595177 0,-0.05652 -1.034144,-0.102757 -2.298097,-0.102757 -1.263954,0 -2.298097,0.04283 -2.298097,0.09517 0,0.253663 2.156622,3.262636 2.282618,3.184766 0.07972,-0.04927 0.632887,-0.76117 1.229261,-1.582002 z"
       inkscape:label="penguin_body_colour" />
  </g>
</svg>
