<?xml version="1.0" encoding="UTF-8" standalone="no"?>
<!-- Created with Inkscape (http://www.inkscape.org/) -->

<svg
   version="1.1"
   id="svg1"
   width="163"
   height="145"
   viewBox="0 0 163 145"
   sodipodi:docname="spiderman.svg"
   inkscape:version="1.4 (86a8ad7, 2024-10-11)"
   xmlns:inkscape="http://www.inkscape.org/namespaces/inkscape"
   xmlns:sodipodi="http://sodipodi.sourceforge.net/DTD/sodipodi-0.dtd"
   xmlns="http://www.w3.org/2000/svg"
   xmlns:svg="http://www.w3.org/2000/svg">
  <defs
     id="defs1">
    <inkscape:path-effect
       effect="spiro"
       id="path-effect11"
       is_visible="true"
       lpeversion="1" />
    <inkscape:path-effect
       effect="skeletal"
       id="path-effect4"
       is_visible="true"
       lpeversion="1"
       pattern="M 0,18.867925 C 0,8.4528302 8.4528302,0 18.867925,0 c 10.415094,0 18.867924,8.4528302 18.867924,18.867925 0,10.415094 -8.45283,18.867924 -18.867924,18.867924 C 8.4528302,37.735849 0,29.283019 0,18.867925 Z"
       copytype="single_stretched"
       prop_scale="1"
       scale_y_rel="false"
       spacing="0"
       normal_offset="0"
       tang_offset="0"
       prop_units="false"
       vertical_pattern="false"
       hide_knot="false"
       fuse_tolerance="0" />
    <inkscape:path-effect
       effect="skeletal"
       id="path-effect3"
       is_visible="true"
       lpeversion="1"
       pattern="M 0,18.867925 C 0,8.4528302 8.4528302,0 18.867925,0 c 10.415094,0 18.867924,8.4528302 18.867924,18.867925 0,10.415094 -8.45283,18.867924 -18.867924,18.867924 C 8.4528302,37.735849 0,29.283019 0,18.867925 Z"
       copytype="single_stretched"
       prop_scale="1"
       scale_y_rel="false"
       spacing="0"
       normal_offset="0"
       tang_offset="0"
       prop_units="false"
       vertical_pattern="false"
       hide_knot="false"
       fuse_tolerance="0" />
    <inkscape:path-effect
       effect="skeletal"
       id="path-effect2"
       is_visible="true"
       lpeversion="1"
       pattern="M 0,18.867925 C 0,8.4528302 8.4528302,0 18.867925,0 c 10.415094,0 18.867924,8.4528302 18.867924,18.867925 0,10.415094 -8.45283,18.867924 -18.867924,18.867924 C 8.4528302,37.735849 0,29.283019 0,18.867925 Z"
       copytype="single_stretched"
       prop_scale="1"
       scale_y_rel="false"
       spacing="0"
       normal_offset="0"
       tang_offset="0"
       prop_units="false"
       vertical_pattern="false"
       hide_knot="false"
       fuse_tolerance="0" />
  </defs>
  <sodipodi:namedview
     id="namedview1"
     pagecolor="#ffffff"
     bordercolor="#000000"
     borderopacity="0.25"
     inkscape:showpageshadow="2"
     inkscape:pageopacity="0.0"
     inkscape:pagecheckerboard="0"
     inkscape:deskcolor="#d1d1d1"
     inkscape:zoom="22.627417"
     inkscape:cx="72.566833"
     inkscape:cy="107.94427"
     inkscape:window-width="1920"
     inkscape:window-height="1009"
     inkscape:window-x="-8"
     inkscape:window-y="-8"
     inkscape:window-maximized="1"
     inkscape:current-layer="g1"
     showguides="false" />
  <g
     inkscape:groupmode="layer"
     inkscape:label="Image"
     id="g1">
    <path
       style="display:inline;fill:#ff7a00;fill-opacity:1;stroke:#000000;stroke-width:0.3;stroke-dasharray:none"
       d="m 78.870909,23.80657 c 14.168357,2.008046 21.615521,8.29083 21.848081,16.253763 0.11992,4.105936 -0.27556,9.287966 -0.28419,13.191388 -0.0138,6.254908 -2.443292,10.58466 -4.265857,12.997806 -5.777308,7.649378 -15.838439,7.961666 -16.46528,8.206209 0,0 -17.867177,2.2179 -22.330291,-21.204015 -0.467079,-2.451178 -0.519438,-8.505445 0.241961,-13.495545 0.661796,-4.337319 4.54565,-9.220564 9.426467,-12.647085 2.78358,-1.954181 6.269133,-2.770681 11.829109,-3.302521 z"
       id="path1"
       sodipodi:nodetypes="cssscsssc"
       inkscape:label="face_colour"
       sodipodi:insensitive="true" />
    <path
       id="path23638-1"
       style="font-variation-settings:normal;display:inline;vector-effect:none;fill:#ffffff;fill-opacity:1;stroke:#000000;stroke-width:1.1;stroke-linecap:butt;stroke-linejoin:miter;stroke-miterlimit:4;stroke-dasharray:none;stroke-dashoffset:0;stroke-opacity:1;-inkscape-stroke:none;stop-color:#000000"
       d="m 57.468696,40.770111 -0.19058,11.180524 c 0,0 2.54103,5.336159 8.44892,5.590262 5.907891,0.254103 7.305456,-5.717313 7.305456,-5.717313 0.254103,-6.479622 -4.637376,-7.496033 -4.637376,-7.496033 -11.117,-3.748017 -10.92642,-3.55744 -10.92642,-3.55744 z m 42.680264,0 0.19058,11.180524 c 0,0 -2.541028,5.336159 -8.448918,5.590262 -5.907891,0.254103 -7.305456,-5.717313 -7.305456,-5.717313 -0.254103,-6.479622 4.637376,-7.496033 4.637376,-7.496033 11.116998,-3.748017 10.926418,-3.55744 10.926418,-3.55744 z"
       inkscape:label="eyes"
       sodipodi:insensitive="true" />
    <path
       id="path5-8"
       style="fill:#012564;fill-opacity:1;stroke:#000000;stroke-width:0.3;stroke-dasharray:none"
       d="m 56.822836,40.80441 c 0,0 0.73375,10.791587 0.10319,16.023132 -0.0205,0.17034 -0.1011,0.282045 -0.15097,0.424837 -0.9639,2.760085 -7.11548,0.475485 -7.14083,-2.917879 -0.0276,-3.69958 -0.72609,-7.966732 0.40895,-11.232018 1.16907,-3.363177 4.64804,-2.582083 6.77969,-2.298072 z m 44.196464,1.28287 c 0,0 -0.73375,10.791587 -0.10319,16.023132 0.0205,0.17034 0.1011,0.282045 0.15097,0.424837 0.9639,2.760085 7.11548,0.475485 7.14083,-2.917879 0.0276,-3.69958 0.72609,-7.966732 -0.40895,-11.232018 -1.16907,-3.363177 -4.64804,-2.582083 -6.77969,-2.298072 z"
       inkscape:label="headphones-blue-part" />
    <path
       id="path7"
       style="fill:#757575;fill-opacity:1;stroke:#000000;stroke-width:0.3;stroke-dasharray:none"
       d="m 53.930288,40.464437 c -0.939628,-0.04342 -1.960242,0.332398 -2.719924,0.758011 0.64906,-4.717479 2.468853,-7.919893 4.079885,-11.392467 l 2.719924,1.516023 c -2.373994,3.438864 -3.102515,5.961827 -4.079885,9.118433 z m 50.935572,1.280119 c -1.01221,-6.055218 -3.5147,-8.625603 -4.09878,-9.64791 0.68579,-0.71821 1.18009,-1.181094 2.33315,-2.52233 2.12881,3.925367 4.91321,9.5012 4.72936,14.913274 -0.33904,-1.110715 -1.54162,-2.605284 -2.96373,-2.743034 z"
       inkscape:label="headphones-grey-part" />
    <path
       style="fill:#000000;fill-opacity:1;stroke:#000000;stroke-width:0.3;stroke-dasharray:none"
       d="M 103.10023,29.574316 C 95.254359,22.849678 86.798266,20.882805 80.462317,20.620045 63.297098,20.840583 58.227407,27.122909 55.290249,29.829981 l 2.719924,1.516023 c 5.530065,-4.32595 8.964325,-7.334224 22.05803,-7.919867 12.087717,0.531946 15.662396,4.933455 20.698877,8.670509"
       id="path8"
       sodipodi:nodetypes="cccccc"
       inkscape:label="headphones-black-part" />
    <path
       id="path9-1"
       style="display:inline;fill:#1050c0;fill-opacity:1;stroke:#000000;stroke-width:0.3;stroke-dasharray:none"
       d="m 87.590636,73.589273 c 0.98872,-0.313956 2.381618,-0.0676 3.302603,1.301628 5.603227,8.081899 4.892143,10.630099 4.566074,14.554454 h -6.019502 c -0.208082,-1.828145 -0.554935,-2.633423 -0.32327,-5.205755 0.03202,-0.355582 -0.848926,-0.378537 -0.969809,0 -0.939897,2.943201 1.12794,5.546986 0.163954,8.85013 -0.647173,1.603217 -4.048078,2.161037 -5.249599,1.749867 -1.992198,0.849919 -3.936315,-18.939036 4.529549,-21.250324 z m -16.450294,0 c -0.98872,-0.313956 -2.381618,-0.0676 -3.302603,1.301628 C 62.234512,82.9728 62.945596,85.521 63.271665,89.445355 h 6.019502 c 0.208082,-1.828145 0.554935,-2.633423 0.32327,-5.205755 -0.03202,-0.355582 0.848926,-0.378537 0.969809,0 0.939897,2.943201 -1.12794,5.546986 -0.163954,8.85013 0.647173,1.603217 4.048078,2.161037 5.249599,1.749867 1.992198,0.849919 3.936315,-18.939036 -4.529549,-21.250324 z"
       inkscape:label="jacket" />
    <path
       id="path10-2"
       style="fill:#000000;fill-opacity:1;stroke:#000000;stroke-width:0.3;stroke-dasharray:none"
       d="m 85.708923,74.410183 c -0.683944,-0.0073 -1.350719,-0.190067 -2.393298,0.251314 -1.064366,0.450605 -1.346457,0.603781 -1.292694,1.071452 l 0.432957,3.766205 c 0.715541,-2.189768 1.059311,-3.792569 3.253035,-5.088971 z m -12.802797,0 c 0.683944,-0.0073 1.350719,-0.190067 2.393298,0.251314 1.064366,0.450605 1.302231,0.600798 1.292694,1.071452 l -0.09143,4.512184 c -0.715541,-2.189768 -1.400838,-4.538548 -3.594562,-5.83495 z"
       inkscape:label="jacket-collar" />
    <path
       style="display:inline;opacity:1;fill:#ff7a00;fill-opacity:1;stroke:none;stroke-width:0.3;stroke-dasharray:none"
       d="m 78.158308,91.305547 h -0.843027 c 0.182187,-1.023797 0.130357,-2.018429 0.205537,-2.984475 0.04611,-0.592538 -0.0197,-1.172666 -0.009,-1.747966 0.03934,-2.123754 -0.382413,-4.450483 -0.833857,-6.281382 -0.0046,-0.01638 -0.09057,-1.798575 0,-3.167872 0.02109,-0.3188 0.03696,-0.641239 0.04286,-0.957201 0.08579,-0.601867 -0.457993,-1.294079 -1.180093,-1.577846 l 0.06491,-0.163424 c 1.242086,0.149626 2.600706,0.359803 3.916197,0.163424 2.171392,-0.324149 3.309679,-0.477178 4.964403,-0.85178 l -0.03315,0.479796 c -0.626608,0.05499 -1.230756,0.299966 -1.502014,0.444676 -0.355552,0.192813 -1.149724,0.455809 -1.064071,0.883136 -0.0022,0.425207 -0.04316,0.93696 0.131371,1.347436 l 0.14453,1.510753 0.129082,1.121874 c -0.270618,0.840964 -0.538442,1.813431 -0.643166,2.655795 -0.451965,1.497692 -0.30705,2.818944 -0.458567,4.085029 l 0.04936,3.33055 0.205651,1.709477 -1.019136,0.0015 c -0.263537,-0.293208 -0.135809,-0.849851 -0.772463,-1.023129 -1.252456,0.145854 -1.138616,0.403151 -1.348813,1.021314 z"
       id="path10"
       sodipodi:nodetypes="ccsscscccsccccccccccccccc"
       inkscape:label="chest" />
    <path
       style="fill:#ff1000;fill-opacity:1;stroke:none;stroke-width:0.3;stroke-dasharray:none"
       d="m 79.883876,90.278371 c -0.267462,-0.07544 -0.564334,-0.04032 -0.806806,0.09546 -0.242471,0.135777 -0.427555,0.370534 -0.502999,0.637996 -0.07544,0.267462 -0.04032,0.564334 0.09546,0.806806 0.135777,0.242471 0.370534,0.427555 0.637996,0.502999 0.267462,0.07544 0.564334,0.04032 0.806806,-0.09546 0.242471,-0.135777 0.427555,-0.370534 0.502999,-0.637996 0.07544,-0.267462 0.04032,-0.564334 -0.09546,-0.806806 -0.135777,-0.242471 -0.370534,-0.427555 -0.637996,-0.502999 z"
       id="path11"
       transform="translate(-0.230211,0.005547)"
       inkscape:original-d="m 79.883876,90.278371 c 0.192117,-0.681086 -0.450886,1.362172 -0.576352,2.043258 -0.125465,0.681086 0.384235,-1.362172 0.576352,-2.043258 z"
       inkscape:path-effect="#path-effect11"
       inkscape:label="belt_buckle" />
    <path
       style="opacity:1;fill:#ff7a00;fill-opacity:1;stroke:#000000;stroke-width:0.3;stroke-dasharray:none;stroke-opacity:1"
       d="M 94.937128,91.332935 C 94.529785,90.390816 92.1087,90.115711 92.1087,90.115711 c 0,0 -1.460266,-0.248455 -1.988737,0.155083 -0.329503,0.251607 -0.419845,1.170742 -0.419845,1.170742 0,0 -0.71412,1.536592 -0.176777,1.834059 0.422768,0.23404 0.986327,-0.900619 1.149049,-0.883884 0.112083,0.01153 0.419844,1.259534 0.419844,1.259534 0,0 0.08285,0.981689 0.198874,1.458408 0.109083,0.4482 0.103762,1.015662 0.464039,1.303728 0.336087,0.268724 0.91506,0.380052 1.281631,0.15468 1.581471,-0.972307 2.637107,-3.531125 1.90035,-5.235126 z"
       id="path12"
       sodipodi:nodetypes="scscsscssss"
       inkscape:label="right hand" />
    <path
       style="opacity:1;fill:#000000;fill-opacity:1;stroke:#000000;stroke-width:0.3;stroke-dasharray:none;stroke-opacity:1"
       d="m 95.294194,89.588388 -0.3125,1.59375 c -2.259051,-1.799647 -5.077723,-1.051723 -4.921875,-0.703125 l -0.484375,-0.890625 c -0.165907,-0.305055 3.869792,-0.02083 5.71875,0 z"
       id="path13"
       sodipodi:nodetypes="cccsc"
       inkscape:label="right sleeve" />
    <path
       style="fill:#ff7a00;fill-opacity:1;stroke:#000000;stroke-width:0.3;stroke-dasharray:none;stroke-opacity:1"
       d="m 63.868156,91.29998 c 0.407343,-0.942119 2.828428,-1.217224 2.828428,-1.217224 0,0 1.460266,-0.248455 1.988737,0.155083 0.329503,0.251607 0.419845,1.170742 0.419845,1.170742 0,0 0.71412,1.536592 0.176777,1.834059 -0.422768,0.23404 -0.986327,-0.900619 -1.149049,-0.883884 -0.112083,0.01153 -0.419844,1.259534 -0.419844,1.259534 0,0 -0.08285,0.981689 -0.198874,1.458408 -0.109083,0.4482 -0.103762,1.015662 -0.464039,1.303728 -0.336087,0.268724 -0.91506,0.380052 -1.281631,0.15468 -1.581471,-0.972307 -2.637107,-3.531125 -1.90035,-5.235126 z"
       id="path12-2"
       sodipodi:nodetypes="scscsscssss"
       inkscape:label="left hand" />
    <path
       style="fill:#000000;fill-opacity:1;stroke:#000000;stroke-width:0.3;stroke-dasharray:none;stroke-opacity:1"
       d="m 63.367459,89.637024 0.464499,1.455346 c 2.259051,-1.799647 5.069355,-0.99491 4.913507,-0.646312 l 0.3125,-0.75 c 0.133558,-0.32054 -3.841548,-0.07986 -5.690506,-0.05903 z"
       id="path13-3"
       sodipodi:nodetypes="cccsc"
       inkscape:label="left sleeve" />
    <path
       style="opacity:1;fill:#071831;fill-opacity:1;stroke:#000000;stroke-width:0.3;stroke-dasharray:none;stroke-opacity:1"
       d="m 78.304852,91.305232 -0.989571,3.15e-4 -1.096531,3.491328 c -1.341133,0.106971 -2.779891,0.372567 -4.056205,-0.182588 -0.616883,-0.219458 -1.280254,-1.163152 -1.788427,-1.041901 -0.680778,1.540616 -0.611103,3.256058 -0.862174,4.886414 -0.09664,0.710981 -0.601876,1.479147 -0.333993,2.17003 0.710773,-0.12944 1.388418,-0.52344 2.120168,-0.648263 0.954326,-0.219095 2.093335,-0.354558 2.865967,0.396113 0.588401,0.80014 2.057861,0.68598 1.862436,-0.514251 -0.120736,-0.87249 -0.184454,-1.804569 0.269369,-2.60181 0.604792,-1.081237 1.391854,-2.28506 2.671698,-2.58602 1.288977,-0.128931 2.267713,0.929829 2.884136,1.934194 0.612737,0.818012 1.03888,1.74449 1.344067,2.717198 0.458808,1.003599 1.769354,0.596314 2.570646,0.307564 0.991209,-0.364295 2.022572,-0.06657 2.966706,0.281512 0.971242,0.513013 2.264721,-0.259703 1.90887,-1.40979 -0.216871,-0.822042 -0.330211,-1.666567 -0.597366,-2.475915 -0.286888,-0.869129 -1.409172,-2.233027 -1.718551,-2.58054 -0.05944,-0.06677 -0.133303,-0.198915 -0.176061,-0.147911 -1.004849,1.198669 -1.304737,1.132079 -1.988662,1.429713 -0.85744,0.373145 -1.848759,0.365437 -2.783457,0.386943 -0.89142,0.01883 -1.253368,-0.889469 -1.398327,-1.620199 -0.191961,-0.70031 -0.181135,-1.460117 -0.409856,-2.139681 -0.709937,-0.228297 -1.37965,-0.02782 -1.539177,0.753098 -0.591434,0.362314 -1.580247,0.244449 -1.644607,-0.591575 L 78.3505,91.407569 78.30485,91.305227 Z"
       id="path14"
       inkscape:label="pants"
       sodipodi:nodetypes="cccsscssssssssssssssssssssccc" />
    <path
       style="fill:#ff7a00;fill-opacity:1;stroke:#000000;stroke-width:0.3;stroke-dasharray:none;stroke-opacity:1"
       d="m 75.560989,100.88425 c -2.967938,-1.698028 -4.508469,-0.74517 -6.29767,-0.25412 0.01639,1.31079 0.734681,3.43075 0.04918,3.93237 -3.544787,2.59392 -6.468613,1.10281 -7.125,3.25 -0.301929,0.98768 1.303121,1.59705 2.375,1.625 L 73,109.25 c 0.919468,-0.0204 2.02835,-0.0858 2.4375,-1.1875 0.543177,-2.32103 0.100943,-4.78284 0.123489,-7.17825 z"
       id="path15"
       sodipodi:nodetypes="ccsscscc"
       inkscape:label="left foot" />
    <path
       style="display:inline;fill:#000000;fill-opacity:1;stroke:#000000;stroke-width:0.3;stroke-dasharray:none;stroke-opacity:1"
       d="m 75.460303,108.25246 c 0,0 0.430376,3.48185 -0.707107,3.35875 -2.602949,-0.28171 -7.590064,-0.2118 -11.048544,-0.26516 -0.978052,-0.0151 -2.436168,-1.66893 -1.767766,-2.34229 0.436374,-0.43961 1.59029,0.57353 2.209708,0.57452 3.934383,0.006 6.065693,-0.95521 9.811107,-0.35355 0.93065,0.1495 1.683325,-0.85179 1.502602,-0.97227 z"
       id="path16-8"
       sodipodi:nodetypes="csssssc"
       inkscape:label="left sandal" />
    <path
       style="display:inline;fill:#000000;fill-opacity:1;stroke:#000000;stroke-width:0.3;stroke-dasharray:none;stroke-opacity:1"
       d="m 84.013124,107.7454 c 0,0 -0.430376,3.48185 0.707107,3.35875 2.602949,-0.28171 7.590064,-0.2118 11.048544,-0.26516 0.978052,-0.0151 2.436168,-1.66893 1.767766,-2.34229 -0.436374,-0.43961 -1.590522,0.55754 -2.209708,0.57452 -3.934383,0.1079 -6.048994,0.3203 -9.811107,-0.35355 -0.58723,-0.10518 -1.502602,-0.97227 -1.502602,-0.97227 z"
       id="path16"
       sodipodi:nodetypes="csssssc"
       inkscape:label="right sandal" />
    <path
       style="fill:#ff7a00;fill-opacity:1;stroke:#000000;stroke-width:0.3;stroke-dasharray:none;stroke-opacity:1"
       d="m 83.80781,100.06258 c 3.021853,-1.495468 3.603239,-0.361441 5.051173,-0.800022 0.459261,-0.139111 0.914189,0.264146 1.371497,0.389655 -0.01639,1.310787 -0.765931,3.993247 -0.08043,4.494867 3.544787,2.59392 6.468613,1.10281 7.125,3.25 0.301929,0.98768 -1.303121,1.59705 -2.375,1.625 l -8.437501,-0.1875 c -0.919468,-0.0204 -2.02835,-0.0858 -2.4375,-1.1875 -0.543177,-2.32103 -0.194693,-5.18909 -0.217239,-7.5845 z"
       id="path15-8"
       sodipodi:nodetypes="cscsscscc"
       inkscape:label="right foot" />
  </g>
</svg>
